<?xml version="1.0" encoding="UTF-8"?>
<svg xmlns="http://www.w3.org/2000/svg" xmlns:xlink="http://www.w3.org/1999/xlink" width="194.61pt" height="173.53pt" viewBox="0 0 194.61 173.53" version="1.1">
<defs>
<g>
<symbol overflow="visible" id="glyph0-0">
<path style="stroke:none;" d=""/>
</symbol>
<symbol overflow="visible" id="glyph0-1">
<path style="stroke:none;" d="M 7.75 -4.078125 C 7.75 -6.40625 6.171875 -8.296875 4.15625 -8.296875 L 1.09375 -8.296875 L 1.09375 0 L 4.15625 0 C 6.15625 0 7.75 -1.8125 7.75 -4.078125 Z M 6.75 -4.09375 C 6.75 -1.90625 5.421875 -0.671875 3.890625 -0.671875 L 2.09375 -0.671875 L 2.09375 -7.625 L 3.890625 -7.625 C 5.484375 -7.625 6.75 -6.25 6.75 -4.09375 Z M 6.75 -4.09375 "/>
</symbol>
<symbol overflow="visible" id="glyph0-2">
<path style="stroke:none;" d="M 7.546875 -7.484375 L 7.546875 -8.234375 L 0.421875 -8.234375 L 0.421875 -7.484375 L 2 -7.484375 C 2.140625 -7.484375 2.28125 -7.5 2.421875 -7.5 L 3.484375 -7.5 L 3.484375 0 L 4.5 0 L 4.5 -7.5 L 5.5625 -7.5 C 5.703125 -7.5 5.84375 -7.484375 5.984375 -7.484375 Z M 7.546875 -7.484375 "/>
</symbol>
<symbol overflow="visible" id="glyph1-0">
<path style="stroke:none;" d=""/>
</symbol>
<symbol overflow="visible" id="glyph1-1">
<path style="stroke:none;" d="M 7.21875 -8.5625 L 7.203125 -8.671875 C 7.15625 -9.046875 7.0625 -9.21875 6.578125 -9.15625 L -0.03125 -8.296875 C -0.4375 -8.234375 -0.5625 -8.09375 -0.515625 -7.65625 L -0.5 -7.546875 C -0.421875 -6.984375 -0.140625 -7.015625 0.171875 -7.0625 L 2.5625 -7.40625 L 3.390625 -1.03125 C 3.453125 -0.59375 3.609375 -0.46875 4.046875 -0.53125 L 4.640625 -0.609375 C 5.09375 -0.671875 5.203125 -0.84375 5.140625 -1.265625 L 4.3125 -7.640625 L 6.6875 -7.921875 C 7.015625 -7.953125 7.296875 -8 7.21875 -8.5625 Z M 7.21875 -8.5625 "/>
</symbol>
<symbol overflow="visible" id="glyph1-2">
<path style="stroke:none;" d="M 5.84375 -1.359375 L 5.421875 -4.640625 C 5.25 -5.84375 4.671875 -6.265625 3.46875 -6.109375 C 2.203125 -5.953125 1.8125 -4.96875 1.703125 -4.640625 L 1.6875 -4.640625 L 1.609375 -5.21875 C 1.546875 -5.609375 1.453125 -5.78125 0.96875 -5.71875 L 0.5625 -5.671875 C 0.140625 -5.609375 0.015625 -5.46875 0.078125 -5.015625 L 0.640625 -0.671875 C 0.703125 -0.234375 0.84375 -0.109375 1.28125 -0.171875 L 1.75 -0.234375 C 2.203125 -0.28125 2.3125 -0.46875 2.25 -0.890625 L 1.90625 -3.5 C 1.78125 -4.53125 2.375 -5.09375 3 -5.171875 C 3.578125 -5.25 3.734375 -5 3.8125 -4.390625 L 4.234375 -1.140625 C 4.28125 -0.75 4.40625 -0.578125 4.875 -0.640625 L 5.359375 -0.703125 C 5.8125 -0.765625 5.90625 -0.9375 5.84375 -1.359375 Z M 5.84375 -1.359375 "/>
</symbol>
<symbol overflow="visible" id="glyph1-3">
<path style="stroke:none;" d="M 5.265625 -3.828125 C 5.0625 -5.359375 4.234375 -6.28125 2.46875 -6.046875 C 0.5625 -5.796875 -0.21875 -4.609375 0.015625 -2.796875 C 0.265625 -0.875 1.5 -0.0625 3.359375 -0.3125 C 3.828125 -0.375 4.5 -0.515625 5.21875 -1.015625 C 5.453125 -1.171875 5.546875 -1.21875 5.53125 -1.375 C 5.515625 -1.453125 5.4375 -1.78125 5.40625 -1.875 C 5.3125 -2.234375 5.296875 -2.25 5.1875 -2.234375 C 5.140625 -2.234375 5.109375 -2.234375 5 -2.09375 C 4.390625 -1.40625 3.6875 -1.234375 3.3125 -1.1875 C 1.96875 -1 1.6875 -2.03125 1.5625 -2.796875 L 4.78125 -3.21875 C 5.046875 -3.25 5.34375 -3.296875 5.265625 -3.828125 Z M 3.953125 -3.734375 L 1.46875 -3.40625 C 1.421875 -4.140625 1.546875 -5.046875 2.578125 -5.1875 C 3.53125 -5.3125 3.796875 -4.65625 3.953125 -3.734375 Z M 3.953125 -3.734375 "/>
</symbol>
<symbol overflow="visible" id="glyph1-4">
<path style="stroke:none;" d="M 5.71875 -5.625 C 5.703125 -5.671875 5.609375 -5.953125 5.5625 -6.0625 C 5.484375 -6.34375 5.46875 -6.375 5.25 -6.34375 C 4.890625 -6.296875 4.296875 -6.078125 3.890625 -5.734375 C 3.296875 -6.046875 2.671875 -6.015625 2.15625 -5.9375 C 1.671875 -5.875 -0.21875 -5.625 0.046875 -3.671875 C 0.109375 -3.1875 0.3125 -2.625 0.796875 -2.28125 C 0.5625 -1.8125 0.625 -1.34375 0.625 -1.28125 C 0.65625 -1.0625 0.765625 -0.6875 1.046875 -0.390625 C 0.890625 -0.296875 0.296875 0 0.40625 0.765625 C 0.453125 1.125 0.71875 1.71875 1.5 1.96875 C 2.203125 2.1875 3.03125 2.09375 3.578125 2.03125 C 4.28125 1.9375 6.546875 1.640625 6.3125 -0.046875 C 6.078125 -1.890625 4.40625 -1.671875 2.796875 -1.46875 L 2.234375 -1.390625 C 1.796875 -1.328125 1.640625 -1.3125 1.453125 -1.453125 C 1.390625 -1.484375 1.171875 -1.625 1.125 -1.9375 C 1.125 -2.015625 1.125 -2.0625 1.140625 -2.125 C 1.71875 -1.890625 2.4375 -1.984375 2.671875 -2.015625 C 3.171875 -2.078125 5.046875 -2.328125 4.796875 -4.28125 C 4.703125 -4.96875 4.40625 -5.34375 4.28125 -5.453125 C 4.484375 -5.484375 4.890625 -5.53125 5.40625 -5.46875 C 5.453125 -5.453125 5.53125 -5.453125 5.578125 -5.453125 C 5.671875 -5.46875 5.71875 -5.53125 5.71875 -5.625 Z M 3.296875 -4.109375 C 3.375 -3.4375 3.390625 -2.984375 2.5625 -2.875 C 1.734375 -2.765625 1.640625 -3.203125 1.5625 -3.859375 C 1.46875 -4.515625 1.4375 -4.96875 2.265625 -5.078125 C 3.09375 -5.1875 3.203125 -4.765625 3.296875 -4.109375 Z M 5.09375 0.140625 C 5.1875 0.9375 3.84375 1.109375 3.453125 1.171875 C 2.984375 1.234375 1.71875 1.390625 1.609375 0.5625 C 1.546875 0 1.921875 -0.046875 2.1875 -0.078125 L 3.5625 -0.265625 C 4.53125 -0.390625 5.03125 -0.28125 5.09375 0.140625 Z M 5.09375 0.140625 "/>
</symbol>
<symbol overflow="visible" id="glyph1-5">
<path style="stroke:none;" d="M 2.546875 -0.671875 L 2.4375 -1.578125 C 2.390625 -1.875 2.375 -1.890625 2.0625 -1.84375 L 1.140625 -1.71875 C 0.828125 -1.6875 0.828125 -1.671875 0.875 -1.375 L 0.984375 -0.46875 C 1.03125 -0.15625 1.03125 -0.140625 1.34375 -0.171875 L 2.265625 -0.296875 C 2.578125 -0.34375 2.59375 -0.359375 2.546875 -0.671875 Z M 2.546875 -0.671875 "/>
</symbol>
<symbol overflow="visible" id="glyph1-6">
<path style="stroke:none;" d="M 5.84375 -3.546875 C 5.765625 -4.125 5.46875 -6.375 3.328125 -6.09375 C 2.609375 -6 2.046875 -5.625 1.65625 -5.15625 C 1.59375 -5.609375 1.421875 -5.703125 1.015625 -5.65625 L 0.5625 -5.59375 C 0.15625 -5.53125 0.046875 -5.390625 0.09375 -4.953125 L 0.96875 1.640625 C 1.015625 2.0625 1.15625 2.1875 1.578125 2.125 L 2.0625 2.0625 C 2.515625 2 2.625 1.828125 2.578125 1.421875 L 2.28125 -0.78125 C 2.875 -0.25 3.53125 -0.34375 3.703125 -0.359375 C 6.21875 -0.6875 5.921875 -2.953125 5.84375 -3.546875 Z M 4.21875 -3.3125 C 4.28125 -2.84375 4.484375 -1.328125 3.15625 -1.15625 C 2.875 -1.125 2.640625 -1.1875 2.5 -1.265625 C 2.203125 -1.4375 2.1875 -1.484375 2.15625 -1.703125 L 1.78125 -4.5625 C 1.890625 -4.703125 2.234375 -5 2.75 -5.0625 C 3.953125 -5.21875 4.15625 -3.828125 4.21875 -3.3125 Z M 4.21875 -3.3125 "/>
</symbol>
<symbol overflow="visible" id="glyph1-7">
<path style="stroke:none;" d="M 5.796875 -3.484375 C 5.53125 -5.421875 4.453125 -6.3125 2.515625 -6.046875 C 0.546875 -5.796875 -0.21875 -4.609375 0.03125 -2.71875 C 0.28125 -0.78125 1.40625 -0.0625 3.265625 -0.296875 C 5.125 -0.546875 6.046875 -1.546875 5.796875 -3.484375 Z M 4.15625 -3.390625 C 4.28125 -2.46875 4.421875 -1.390625 3.140625 -1.21875 C 1.875 -1.0625 1.734375 -2.125 1.609375 -3.0625 C 1.5 -3.984375 1.359375 -5.03125 2.625 -5.1875 C 3.90625 -5.359375 4.046875 -4.328125 4.15625 -3.390625 Z M 4.15625 -3.390625 "/>
</symbol>
<symbol overflow="visible" id="glyph1-8">
<path style="stroke:none;" d="M 4.46875 -2.28125 C 4.375 -2.953125 3.984375 -3.296875 3.734375 -3.484375 C 3.21875 -3.84375 2.78125 -3.859375 2.265625 -3.890625 C 1.609375 -3.9375 1.125 -3.96875 1.0625 -4.4375 C 1 -4.90625 1.375 -5.046875 1.84375 -5.109375 C 2.625 -5.203125 3.09375 -4.984375 3.4375 -4.765625 C 3.578125 -4.640625 3.609375 -4.65625 3.65625 -4.65625 C 3.78125 -4.671875 3.78125 -4.78125 3.78125 -4.828125 C 3.796875 -4.953125 3.828125 -5.609375 3.8125 -5.671875 C 3.796875 -5.859375 3.140625 -5.9375 3 -5.96875 C 2.515625 -6.046875 2.125 -6 1.828125 -5.953125 C 1.296875 -5.890625 -0.296875 -5.6875 -0.078125 -4 C 0 -3.40625 0.3125 -3.09375 0.65625 -2.859375 C 1.125 -2.53125 1.59375 -2.5 2.296875 -2.46875 C 2.640625 -2.4375 3.265625 -2.421875 3.328125 -1.90625 C 3.40625 -1.359375 2.9375 -1.203125 2.5 -1.140625 C 1.96875 -1.0625 1.28125 -1.125 0.640625 -1.71875 C 0.578125 -1.78125 0.546875 -1.796875 0.46875 -1.796875 C 0.359375 -1.78125 0.34375 -1.671875 0.328125 -1.59375 C 0.34375 -1.421875 0.28125 -0.734375 0.296875 -0.625 C 0.328125 -0.40625 1.234375 -0.25 1.234375 -0.25 C 1.921875 -0.125 2.421875 -0.1875 2.625 -0.21875 C 3.21875 -0.296875 4.703125 -0.53125 4.46875 -2.28125 Z M 4.46875 -2.28125 "/>
</symbol>
<symbol overflow="visible" id="glyph2-0">
<path style="stroke:none;" d=""/>
</symbol>
<symbol overflow="visible" id="glyph2-1">
<path style="stroke:none;" d="M 1.75 -10 L 1.6875 -10.09375 C 1.5 -10.40625 1.3125 -10.53125 0.90625 -10.28125 L -2.9375 -7.90625 C -3.296875 -7.6875 -3.328125 -7.484375 -3.109375 -7.125 L 0.640625 -1.0625 C 0.859375 -0.703125 1.03125 -0.640625 1.40625 -0.875 L 1.921875 -1.1875 C 2.3125 -1.421875 2.34375 -1.640625 2.125 -1.984375 L 0.546875 -4.546875 L 2.90625 -6 C 3.21875 -6.1875 3.34375 -6.359375 3.09375 -6.765625 C 2.859375 -7.140625 2.65625 -7.171875 2.3125 -6.953125 L -0.046875 -5.5 L -1.28125 -7.5 L -0.84375 -7.765625 L 1.46875 -9.15625 C 1.8125 -9.375 2.046875 -9.515625 1.75 -10 Z M 1.75 -10 "/>
</symbol>
<symbol overflow="visible" id="glyph2-2">
<path style="stroke:none;" d="M 3.859375 -5.640625 C 3.5625 -6.125 2.359375 -8.046875 0.53125 -6.921875 C -0.078125 -6.546875 -0.453125 -5.96875 -0.609375 -5.390625 C -0.84375 -5.78125 -1.046875 -5.796875 -1.390625 -5.578125 L -1.765625 -5.34375 C -2.125 -5.109375 -2.1875 -4.9375 -1.953125 -4.5625 L 1.546875 1.09375 C 1.765625 1.453125 1.953125 1.515625 2.328125 1.28125 L 2.734375 1.03125 C 3.125 0.796875 3.140625 0.59375 2.921875 0.25 L 1.75 -1.640625 C 2.515625 -1.40625 3.078125 -1.75 3.21875 -1.84375 C 5.375 -3.171875 4.171875 -5.109375 3.859375 -5.640625 Z M 2.5 -4.765625 C 2.75 -4.359375 3.546875 -3.0625 2.40625 -2.34375 C 2.15625 -2.203125 1.921875 -2.171875 1.75 -2.1875 C 1.40625 -2.203125 1.375 -2.25 1.265625 -2.4375 L -0.25 -4.875 C -0.203125 -5.0625 0 -5.484375 0.4375 -5.75 C 1.46875 -6.390625 2.21875 -5.21875 2.5 -4.765625 Z M 2.5 -4.765625 "/>
</symbol>
<symbol overflow="visible" id="glyph2-3">
<path style="stroke:none;" d="M 3.859375 -5.53125 C 2.8125 -7.203125 1.46875 -7.578125 -0.1875 -6.546875 C -1.875 -5.515625 -2.109375 -4.125 -1.09375 -2.484375 C -0.078125 -0.828125 1.265625 -0.625 2.859375 -1.609375 C 4.453125 -2.59375 4.875 -3.875 3.859375 -5.53125 Z M 2.390625 -4.8125 C 2.875 -4.015625 3.453125 -3.078125 2.375 -2.390625 C 1.28125 -1.71875 0.71875 -2.640625 0.21875 -3.453125 C -0.265625 -4.234375 -0.828125 -5.140625 0.265625 -5.8125 C 1.34375 -6.5 1.890625 -5.609375 2.390625 -4.8125 Z M 2.390625 -4.8125 "/>
</symbol>
<symbol overflow="visible" id="glyph2-4">
<path style="stroke:none;" d="M 3.140625 -3.921875 C 2.796875 -4.484375 2.265625 -4.65625 1.96875 -4.71875 C 1.359375 -4.828125 0.953125 -4.671875 0.484375 -4.484375 C -0.140625 -4.25 -0.609375 -4.078125 -0.859375 -4.46875 C -1.109375 -4.890625 -0.8125 -5.171875 -0.421875 -5.421875 C 0.265625 -5.828125 0.78125 -5.8125 1.171875 -5.75 C 1.34375 -5.6875 1.375 -5.703125 1.421875 -5.734375 C 1.515625 -5.796875 1.46875 -5.90625 1.453125 -5.953125 C 1.4375 -6.0625 1.1875 -6.6875 1.15625 -6.734375 C 1.046875 -6.890625 0.421875 -6.71875 0.28125 -6.671875 C -0.1875 -6.546875 -0.53125 -6.34375 -0.796875 -6.1875 C -1.25 -5.90625 -2.609375 -5.0625 -1.71875 -3.609375 C -1.40625 -3.109375 -1 -2.953125 -0.5625 -2.875 C 0 -2.765625 0.4375 -2.921875 1.078125 -3.1875 C 1.40625 -3.3125 1.984375 -3.53125 2.25 -3.09375 C 2.546875 -2.609375 2.203125 -2.296875 1.8125 -2.046875 C 1.359375 -1.765625 0.703125 -1.5625 -0.125 -1.828125 C -0.21875 -1.859375 -0.25 -1.875 -0.328125 -1.828125 C -0.421875 -1.765625 -0.375 -1.65625 -0.359375 -1.59375 C -0.28125 -1.4375 -0.046875 -0.78125 0.015625 -0.6875 C 0.125 -0.515625 1.03125 -0.734375 1.03125 -0.734375 C 1.703125 -0.90625 2.125 -1.15625 2.296875 -1.265625 C 2.8125 -1.59375 4.078125 -2.421875 3.140625 -3.921875 Z M 3.140625 -3.921875 "/>
</symbol>
<symbol overflow="visible" id="glyph2-5">
<path style="stroke:none;" d="M 2.046875 -1.65625 L 1.5625 -2.4375 C 1.40625 -2.6875 1.375 -2.6875 1.109375 -2.53125 L 0.328125 -2.046875 C 0.0625 -1.875 0.078125 -1.859375 0.234375 -1.609375 L 0.71875 -0.828125 C 0.875 -0.5625 0.890625 -0.546875 1.15625 -0.71875 L 1.9375 -1.203125 C 2.203125 -1.359375 2.203125 -1.390625 2.046875 -1.65625 Z M 2.046875 -1.65625 "/>
</symbol>
<symbol overflow="visible" id="glyph3-0">
<path style="stroke:none;" d=""/>
</symbol>
<symbol overflow="visible" id="glyph3-1">
<path style="stroke:none;" d="M 8.640625 -5.328125 L 8.671875 -5.421875 C 8.78125 -5.78125 8.75 -6 8.28125 -6.140625 L 3.96875 -7.4375 C 3.5625 -7.5625 3.390625 -7.46875 3.265625 -7.046875 L 1.21875 -0.234375 C 1.09375 0.171875 1.171875 0.34375 1.59375 0.484375 L 2.171875 0.65625 C 2.609375 0.78125 2.765625 0.65625 2.890625 0.265625 L 3.75 -2.609375 L 6.421875 -1.796875 C 6.765625 -1.703125 6.96875 -1.71875 7.109375 -2.1875 C 7.234375 -2.609375 7.140625 -2.765625 6.75 -2.875 L 4.078125 -3.6875 L 4.75 -5.9375 L 5.25 -5.78125 L 7.828125 -4.96875 C 8.203125 -4.859375 8.46875 -4.78125 8.640625 -5.328125 Z M 8.640625 -5.328125 "/>
</symbol>
<symbol overflow="visible" id="glyph3-2">
<path style="stroke:none;" d="M 5.890625 1.171875 L 6.84375 -2 C 7.1875 -3.171875 6.828125 -3.796875 5.671875 -4.15625 C 4.453125 -4.515625 3.6875 -3.796875 3.453125 -3.53125 L 3.4375 -3.53125 L 3.609375 -4.109375 C 3.71875 -4.46875 3.6875 -4.6875 3.21875 -4.828125 L 2.828125 -4.9375 C 2.421875 -5.0625 2.25 -4.984375 2.125 -4.5625 L 0.859375 -0.34375 C 0.734375 0.0625 0.8125 0.25 1.234375 0.375 L 1.6875 0.515625 C 2.125 0.640625 2.296875 0.515625 2.421875 0.125 L 3.171875 -2.40625 C 3.46875 -3.390625 4.28125 -3.671875 4.875 -3.5 C 5.4375 -3.328125 5.4375 -3.03125 5.265625 -2.453125 L 4.328125 0.703125 C 4.203125 1.078125 4.25 1.28125 4.71875 1.421875 L 5.171875 1.5625 C 5.609375 1.6875 5.765625 1.5625 5.890625 1.171875 Z M 5.890625 1.171875 "/>
</symbol>
<symbol overflow="visible" id="glyph3-3">
<path style="stroke:none;" d="M 6.359375 -1.34375 C 6.8125 -2.8125 6.4375 -4 4.734375 -4.5 C 2.890625 -5.0625 1.6875 -4.296875 1.15625 -2.546875 C 0.59375 -0.6875 1.40625 0.5625 3.203125 1.09375 C 3.65625 1.234375 4.3125 1.375 5.1875 1.21875 C 5.453125 1.171875 5.5625 1.15625 5.609375 1.015625 C 5.625 0.9375 5.703125 0.609375 5.703125 0.5 C 5.765625 0.140625 5.765625 0.109375 5.65625 0.078125 C 5.609375 0.0625 5.578125 0.0625 5.421875 0.140625 C 4.578125 0.53125 3.875 0.390625 3.515625 0.28125 C 2.203125 -0.109375 2.375 -1.15625 2.5625 -1.90625 L 5.671875 -0.96875 C 5.921875 -0.890625 6.203125 -0.8125 6.359375 -1.34375 Z M 5.140625 -1.78125 L 2.75 -2.5 C 3 -3.1875 3.484375 -3.984375 4.484375 -3.671875 C 5.40625 -3.40625 5.359375 -2.703125 5.140625 -1.78125 Z M 5.140625 -1.78125 "/>
</symbol>
<symbol overflow="visible" id="glyph3-4">
<path style="stroke:none;" d="M 7.515625 -2.796875 C 7.53125 -2.84375 7.546875 -3.125 7.5625 -3.265625 C 7.59375 -3.546875 7.59375 -3.578125 7.390625 -3.640625 C 7.046875 -3.734375 6.421875 -3.78125 5.90625 -3.640625 C 5.484375 -4.15625 4.90625 -4.390625 4.40625 -4.53125 C 3.921875 -4.671875 2.109375 -5.21875 1.546875 -3.328125 C 1.40625 -2.859375 1.34375 -2.265625 1.671875 -1.75 C 1.25 -1.421875 1.109375 -0.984375 1.09375 -0.921875 C 1.03125 -0.703125 0.984375 -0.296875 1.125 0.078125 C 0.921875 0.09375 0.265625 0.109375 0.046875 0.84375 C -0.0625 1.203125 -0.046875 1.859375 0.578125 2.40625 C 1.125 2.890625 1.890625 3.140625 2.421875 3.296875 C 3.09375 3.5 5.28125 4.15625 5.78125 2.53125 C 6.3125 0.75 4.703125 0.265625 3.15625 -0.1875 L 2.609375 -0.359375 C 2.1875 -0.484375 2.03125 -0.53125 1.921875 -0.734375 C 1.890625 -0.78125 1.734375 -1.015625 1.828125 -1.3125 C 1.84375 -1.390625 1.875 -1.40625 1.90625 -1.46875 C 2.359375 -1.03125 3.046875 -0.828125 3.28125 -0.75 C 3.765625 -0.609375 5.578125 -0.0625 6.140625 -1.9375 C 6.328125 -2.59375 6.203125 -3.078125 6.15625 -3.234375 C 6.34375 -3.171875 6.734375 -3.046875 7.171875 -2.78125 C 7.203125 -2.734375 7.265625 -2.703125 7.3125 -2.6875 C 7.40625 -2.65625 7.5 -2.703125 7.515625 -2.796875 Z M 4.6875 -2.390625 C 4.5 -1.75 4.3125 -1.328125 3.515625 -1.5625 C 2.703125 -1.8125 2.8125 -2.25 3 -2.875 C 3.1875 -3.5 3.359375 -3.953125 4.171875 -3.703125 C 4.96875 -3.46875 4.875 -3.015625 4.6875 -2.390625 Z M 4.578125 2.21875 C 4.34375 3 3.046875 2.609375 2.671875 2.484375 C 2.21875 2.359375 1 1.984375 1.25 1.171875 C 1.40625 0.625 1.765625 0.734375 2.015625 0.8125 L 3.34375 1.21875 C 4.28125 1.5 4.703125 1.8125 4.578125 2.21875 Z M 4.578125 2.21875 "/>
</symbol>
<symbol overflow="visible" id="glyph3-5">
<path style="stroke:none;" d="M 2.59375 0.4375 L 2.859375 -0.453125 C 2.953125 -0.734375 2.9375 -0.75 2.640625 -0.84375 L 1.75 -1.109375 C 1.453125 -1.203125 1.453125 -1.1875 1.359375 -0.90625 L 1.09375 -0.015625 C 1 0.28125 1 0.296875 1.296875 0.390625 L 2.1875 0.65625 C 2.484375 0.75 2.5 0.734375 2.59375 0.4375 Z M 2.59375 0.4375 "/>
</symbol>
<symbol overflow="visible" id="glyph4-0">
<path style="stroke:none;" d=""/>
</symbol>
<symbol overflow="visible" id="glyph4-1">
<path style="stroke:none;" d="M 1.765625 0.046875 C 2.8125 0.03125 3.78125 -1.0625 4.140625 -1.734375 L 3.6875 0 L 4.515625 0 C 4.546875 -0.234375 4.640625 -0.609375 4.703125 -0.96875 C 4.90625 -1.9375 5.109375 -2.921875 5.484375 -4.765625 C 5.765625 -6.09375 5.921875 -6.734375 6.078125 -7.1875 L 5.1875 -7.1875 C 5.1875 -7.015625 5.15625 -6.828125 5.046875 -6.28125 L 4.609375 -4.15625 C 4.203125 -4.609375 3.71875 -4.8125 3.234375 -4.8125 C 2.171875 -4.84375 1.140625 -4.203125 0.59375 -3.09375 C -0.140625 -1.578125 0.078125 0.125 1.765625 0.046875 Z M 3.1875 -4.125 C 3.734375 -4.109375 4.203125 -3.734375 4.453125 -3.359375 L 4.421875 -3.28125 C 3.96875 -2.328125 2.71875 -0.6875 1.828125 -0.6875 C 0.75 -0.6875 0.75 -1.859375 1.25 -2.8125 C 1.65625 -3.578125 2.40625 -4.140625 3.1875 -4.125 Z M 3.1875 -4.125 "/>
</symbol>
<symbol overflow="visible" id="glyph4-2">
<path style="stroke:none;" d="M 3.9375 -3 L 2.0625 -3 C 1.34375 -3.015625 0.84375 -3.0625 0.53125 -3.140625 L 0.53125 -2.15625 C 0.84375 -2.21875 1.34375 -2.265625 2.078125 -2.265625 L 3.9375 -2.265625 L 3.9375 -0.375 C 3.9375 0.328125 3.890625 0.84375 3.8125 1.140625 L 4.8125 1.140625 C 4.734375 0.84375 4.703125 0.515625 4.6875 0.15625 L 4.6875 -2.265625 L 6.578125 -2.265625 C 7.296875 -2.265625 7.796875 -2.21875 8.09375 -2.140625 L 8.09375 -3.140625 C 7.796875 -3.0625 7.46875 -3.03125 7.109375 -3.015625 L 4.671875 -3.015625 L 4.671875 -4.890625 C 4.6875 -5.625 4.734375 -6.125 4.8125 -6.421875 L 3.828125 -6.421875 C 3.890625 -6.125 3.9375 -5.609375 3.9375 -4.875 Z M 3.9375 -3 "/>
</symbol>
<symbol overflow="visible" id="glyph4-3">
<path style="stroke:none;" d="M 4.65625 -2.65625 C 5.0625 -2.65625 5.453125 -2.65625 5.765625 -2.65625 C 6.5625 -2.65625 7.09375 -2.640625 7.34375 -2.640625 C 7.671875 -2.625 8 -2.59375 8.296875 -2.515625 L 8.296875 -3.59375 C 7.90625 -3.484375 6.671875 -3.4375 4.65625 -3.4375 C 2.65625 -3.4375 1.390625 -3.484375 0.984375 -3.59375 L 0.984375 -2.515625 C 1.296875 -2.59375 1.609375 -2.625 1.953125 -2.640625 C 2.1875 -2.640625 2.734375 -2.65625 3.53125 -2.65625 C 3.859375 -2.65625 4.25 -2.65625 4.65625 -2.65625 Z M 4.65625 -2.65625 "/>
</symbol>
<symbol overflow="visible" id="glyph4-4">
<path style="stroke:none;" d="M 3.34375 -4.703125 C 3.328125 -4.6875 3.078125 -4.625 2.140625 -4.640625 L 2.46875 -6.1875 L 1.640625 -5.875 C 1.546875 -5.46875 1.453125 -5.0625 1.375 -4.640625 L 0.6875 -4.640625 C 0.640625 -4.46875 0.578125 -4.140625 0.5625 -4.125 L 1.25 -4.125 C 1 -3.015625 0.84375 -2.328125 0.78125 -2.078125 C 0.53125 -1 0.40625 -0.34375 0.40625 -0.125 C 0.40625 0.296875 0.96875 0.0625 1.1875 -0.015625 C 1.484375 -0.125 1.75 -0.28125 1.859375 -0.34375 L 2 -1.015625 C 1.609375 -0.828125 1.359375 -0.734375 1.265625 -0.734375 C 1.1875 -0.734375 1.359375 -1.296875 1.578125 -2.203125 C 1.8125 -3.125 1.953125 -3.765625 2.03125 -4.140625 L 3.203125 -4.109375 Z M 3.34375 -4.703125 "/>
</symbol>
</g>
<clipPath id="clip1">
  <path d="M 0 0 L 70 0 L 70 173.53125 L 0 173.53125 Z M 0 0 "/>
</clipPath>
<clipPath id="clip2">
  <path d="M 128 0 L 194.609375 0 L 194.609375 173.53125 L 128 173.53125 Z M 128 0 "/>
</clipPath>
<clipPath id="clip3">
  <path d="M 0 20 L 194.609375 20 L 194.609375 160 L 0 160 Z M 0 20 "/>
</clipPath>
<clipPath id="clip4">
  <path d="M 0 0 L 194.609375 0 L 194.609375 96 L 0 96 Z M 0 0 "/>
</clipPath>
</defs>
<g id="surface1">
<path style=" stroke:none;fill-rule:nonzero;fill:rgb(100%,100%,100%);fill-opacity:1;" d="M 6.820312 145.789062 L 6.820312 31.726562 C 6.820312 20.171875 16.1875 10.804688 27.742188 10.804688 L 28.417969 10.804688 C 39.972656 10.804688 49.339844 20.171875 49.339844 31.726562 L 49.339844 145.789062 C 49.339844 157.34375 39.972656 166.710938 28.417969 166.710938 L 27.742188 166.710938 C 16.1875 166.710938 6.820312 157.34375 6.820312 145.789062 Z M 6.820312 145.789062 "/>
<g clip-path="url(#clip1)" clip-rule="nonzero">
<path style="fill:none;stroke-width:1.41731;stroke-linecap:butt;stroke-linejoin:miter;stroke:rgb(50%,50%,50%);stroke-opacity:1;stroke-miterlimit:10;" d="M 0.0013125 20.921938 L 0.0013125 134.984438 C 0.0013125 146.539125 9.3685 155.906313 20.923187 155.906313 L 21.598969 155.906313 C 33.153656 155.906313 42.520844 146.539125 42.520844 134.984438 L 42.520844 20.921938 C 42.520844 9.36725 33.153656 0.0000625 21.598969 0.0000625 L 20.923187 0.0000625 C 9.3685 0.0000625 0.0013125 9.36725 0.0013125 20.921938 Z M 0.0013125 20.921938 " transform="matrix(1,0,0,-1,6.819,166.711)"/>
</g>
<g style="fill:rgb(0%,0%,0%);fill-opacity:1;">
  <use xlink:href="#glyph0-1" x="23.871" y="153.851"/>
</g>
<path style=" stroke:none;fill-rule:nonzero;fill:rgb(100%,100%,100%);fill-opacity:1;" d="M 148.554688 145.789062 L 148.554688 31.726562 C 148.554688 20.171875 157.917969 10.804688 169.476562 10.804688 L 170.152344 10.804688 C 181.707031 10.804688 191.074219 20.171875 191.074219 31.726562 L 191.074219 145.789062 C 191.074219 157.34375 181.707031 166.710938 170.152344 166.710938 L 169.476562 166.710938 C 157.917969 166.710938 148.554688 157.34375 148.554688 145.789062 Z M 148.554688 145.789062 "/>
<g clip-path="url(#clip2)" clip-rule="nonzero">
<path style="fill:none;stroke-width:1.41731;stroke-linecap:butt;stroke-linejoin:miter;stroke:rgb(50%,50%,50%);stroke-opacity:1;stroke-miterlimit:10;" d="M 141.735687 20.921938 L 141.735687 134.984438 C 141.735687 146.539125 151.098969 155.906313 162.657562 155.906313 L 163.333344 155.906313 C 174.888031 155.906313 184.255219 146.539125 184.255219 134.984438 L 184.255219 20.921938 C 184.255219 9.36725 174.888031 0.0000625 163.333344 0.0000625 L 162.657562 0.0000625 C 151.098969 0.0000625 141.735687 9.36725 141.735687 20.921938 Z M 141.735687 20.921938 " transform="matrix(1,0,0,-1,6.819,166.711)"/>
</g>
<g style="fill:rgb(0%,0%,0%);fill-opacity:1;">
  <use xlink:href="#glyph0-2" x="165.82" y="153.821"/>
</g>
<path style="fill:none;stroke-width:0.3985;stroke-linecap:butt;stroke-linejoin:miter;stroke:rgb(84.999084%,84.999084%,84.999084%);stroke-opacity:1;stroke-miterlimit:10;" d="M 154.134125 114.375063 L 171.852875 114.375063 " transform="matrix(1,0,0,-1,6.819,166.711)"/>
<path style="fill:none;stroke-width:0.3985;stroke-linecap:butt;stroke-linejoin:miter;stroke:rgb(84.999084%,84.999084%,84.999084%);stroke-opacity:1;stroke-miterlimit:10;" d="M 154.278656 98.925844 L 154.278656 114.375063 " transform="matrix(1,0,0,-1,6.819,166.711)"/>
<path style="fill:none;stroke-width:0.3985;stroke-linecap:butt;stroke-linejoin:miter;stroke:rgb(84.999084%,84.999084%,84.999084%);stroke-opacity:1;stroke-miterlimit:10;" d="M 171.71225 98.925844 L 171.71225 114.375063 " transform="matrix(1,0,0,-1,6.819,166.711)"/>
<path style="fill:none;stroke-width:0.79701;stroke-linecap:butt;stroke-linejoin:miter;stroke:rgb(25%,25%,25%);stroke-opacity:1;stroke-miterlimit:10;" d="M 154.134125 98.925844 L 171.852875 98.925844 " transform="matrix(1,0,0,-1,6.819,166.711)"/>
<path style=" stroke:none;fill-rule:nonzero;fill:rgb(87.057495%,56.077576%,1.959229%);fill-opacity:1;" d="M 169.8125 53.042969 L 162.726562 53.042969 L 162.726562 67.214844 L 169.8125 67.214844 Z M 169.8125 53.042969 "/>
<path style="fill:none;stroke-width:0.3985;stroke-linecap:butt;stroke-linejoin:miter;stroke:rgb(84.999084%,84.999084%,84.999084%);stroke-opacity:1;stroke-miterlimit:10;" d="M 154.134125 50.597719 L 171.852875 50.597719 " transform="matrix(1,0,0,-1,6.819,166.711)"/>
<path style="fill:none;stroke-width:0.3985;stroke-linecap:butt;stroke-linejoin:miter;stroke:rgb(84.999084%,84.999084%,84.999084%);stroke-opacity:1;stroke-miterlimit:10;" d="M 154.278656 35.1485 L 154.278656 50.597719 " transform="matrix(1,0,0,-1,6.819,166.711)"/>
<path style="fill:none;stroke-width:0.3985;stroke-linecap:butt;stroke-linejoin:miter;stroke:rgb(84.999084%,84.999084%,84.999084%);stroke-opacity:1;stroke-miterlimit:10;" d="M 171.71225 35.1485 L 171.71225 50.597719 " transform="matrix(1,0,0,-1,6.819,166.711)"/>
<path style="fill:none;stroke-width:0.79701;stroke-linecap:butt;stroke-linejoin:miter;stroke:rgb(25%,25%,25%);stroke-opacity:1;stroke-miterlimit:10;" d="M 154.134125 35.1485 L 171.852875 35.1485 " transform="matrix(1,0,0,-1,6.819,166.711)"/>
<path style=" stroke:none;fill-rule:nonzero;fill:rgb(0.782776%,61.959839%,45.097351%);fill-opacity:1;" d="M 176.898438 116.824219 L 169.8125 116.824219 L 169.8125 130.996094 L 176.898438 130.996094 Z M 176.898438 116.824219 "/>
<g clip-path="url(#clip3)" clip-rule="nonzero">
<path style="fill:none;stroke-width:4.53549;stroke-linecap:butt;stroke-linejoin:miter;stroke:rgb(0.799561%,61.999512%,45.098877%);stroke-opacity:1;stroke-miterlimit:10;" d="M 24.134125 71.636781 C 71.919281 84.441469 103.751312 85.355531 148.391937 74.636781 " transform="matrix(1,0,0,-1,6.819,166.711)"/>
</g>
<path style=" stroke:none;fill-rule:nonzero;fill:rgb(0.799561%,61.999512%,45.098877%);fill-opacity:1;" d="M 163.078125 94.050781 L 151.894531 84.566406 L 155.117188 92.105469 L 148.78125 97.304688 "/>
<path style=" stroke:none;fill-rule:nonzero;fill:rgb(98.039246%,97.254944%,97.254944%);fill-opacity:1;" d="M 89.550781 78.804688 L 53.660156 83.515625 L 55.050781 94.109375 L 90.941406 89.402344 Z M 89.550781 78.804688 "/>
<g style="fill:rgb(0.799561%,61.999512%,45.098877%);fill-opacity:1;">
  <use xlink:href="#glyph1-1" x="54.728575" y="91.669269"/>
</g>
<g style="fill:rgb(0.799561%,61.999512%,45.098877%);fill-opacity:1;">
  <use xlink:href="#glyph1-2" x="67.766988" y="89.958755"/>
  <use xlink:href="#glyph1-3" x="74.416579" y="89.086393"/>
  <use xlink:href="#glyph1-4" x="80.473514" y="88.291781"/>
  <use xlink:href="#glyph1-5" x="86.992721" y="87.436524"/>
</g>
<path style="fill:none;stroke-width:0.3985;stroke-linecap:butt;stroke-linejoin:miter;stroke:rgb(50%,50%,50%);stroke-opacity:1;stroke-dasharray:2.98883,2.98883;stroke-miterlimit:10;" d="M 23.563812 72.750063 C 67.735687 108.808656 100.177094 123.871156 154.153656 133.187563 " transform="matrix(1,0,0,-1,6.819,166.711)"/>
<path style=" stroke:none;fill-rule:nonzero;fill:rgb(50%,50%,50%);fill-opacity:1;" d="M 162.949219 33.1875 L 159.535156 32.15625 L 160.984375 33.523438 L 160.074219 35.296875 "/>
<path style=" stroke:none;fill-rule:nonzero;fill:rgb(98.039246%,97.254944%,97.254944%);fill-opacity:1;" d="M 79.679688 53.195312 L 50.714844 71.09375 L 56.277344 80.09375 L 85.242188 62.195312 Z M 79.679688 53.195312 "/>
<g style="fill:rgb(50%,50%,50%);fill-opacity:1;">
  <use xlink:href="#glyph2-1" x="55.058239" y="78.122515"/>
</g>
<g style="fill:rgb(50%,50%,50%);fill-opacity:1;">
  <use xlink:href="#glyph2-2" x="65.003963" y="71.976167"/>
</g>
<g style="fill:rgb(50%,50%,50%);fill-opacity:1;">
  <use xlink:href="#glyph2-3" x="71.024278" y="68.255678"/>
  <use xlink:href="#glyph2-4" x="76.617477" y="64.799143"/>
  <use xlink:href="#glyph2-5" x="80.908985" y="62.147038"/>
</g>
<path style="fill:none;stroke-width:0.3985;stroke-linecap:butt;stroke-linejoin:miter;stroke:rgb(50%,50%,50%);stroke-opacity:1;stroke-dasharray:2.98883,2.98883;stroke-miterlimit:10;" d="M 24.196625 134.171938 C 80.477875 125.027406 113.266937 110.734438 156.036469 76.515688 " transform="matrix(1,0,0,-1,6.819,166.711)"/>
<path style=" stroke:none;fill-rule:nonzero;fill:rgb(50%,50%,50%);fill-opacity:1;" d="M 164.417969 91.453125 L 162.929688 88.214844 L 162.863281 90.207031 L 160.933594 90.703125 "/>
<path style=" stroke:none;fill-rule:nonzero;fill:rgb(98.039246%,97.254944%,97.254944%);fill-opacity:1;" d="M 94.570312 42.429688 L 61.304688 32.421875 L 58.214844 42.691406 L 91.484375 52.699219 Z M 94.570312 42.429688 "/>
<g style="fill:rgb(50%,50%,50%);fill-opacity:1;">
  <use xlink:href="#glyph3-1" x="58.923551" y="40.334622"/>
</g>
<g style="fill:rgb(50%,50%,50%);fill-opacity:1;">
  <use xlink:href="#glyph3-2" x="70.119754" y="43.702088"/>
  <use xlink:href="#glyph3-3" x="76.542116" y="45.633733"/>
  <use xlink:href="#glyph3-4" x="82.392075" y="47.393217"/>
  <use xlink:href="#glyph3-5" x="88.688508" y="49.286987"/>
</g>
<g clip-path="url(#clip4)" clip-rule="nonzero">
<path style="fill:none;stroke-width:4.53549;stroke-linecap:butt;stroke-linejoin:miter;stroke:rgb(87.098694%,56.098938%,1.998901%);stroke-opacity:1;stroke-miterlimit:10;" d="M 24.134125 135.418031 C 71.919281 148.222719 103.751312 149.132875 148.391937 138.414125 " transform="matrix(1,0,0,-1,6.819,166.711)"/>
</g>
<path style=" stroke:none;fill-rule:nonzero;fill:rgb(87.098694%,56.098938%,1.998901%);fill-opacity:1;" d="M 163.078125 30.269531 L 151.894531 20.785156 L 155.117188 28.324219 L 148.78125 33.527344 "/>
<path style=" stroke:none;fill-rule:nonzero;fill:rgb(98.039246%,97.254944%,97.254944%);fill-opacity:1;" d="M 89.214844 15.140625 L 54.011719 19.761719 L 55.382812 30.214844 L 90.585938 25.597656 Z M 89.214844 15.140625 "/>
<g style="fill:rgb(87.098694%,56.098938%,1.998901%);fill-opacity:1;">
  <use xlink:href="#glyph1-1" x="55.081575" y="27.915269"/>
</g>
<g style="fill:rgb(87.098694%,56.098938%,1.998901%);fill-opacity:1;">
  <use xlink:href="#glyph1-6" x="68.119988" y="26.204755"/>
</g>
<g style="fill:rgb(87.098694%,56.098938%,1.998901%);fill-opacity:1;">
  <use xlink:href="#glyph1-7" x="75.137025" y="25.284188"/>
  <use xlink:href="#glyph1-8" x="81.656231" y="24.42893"/>
  <use xlink:href="#glyph1-5" x="86.658241" y="23.772715"/>
</g>
<path style="fill-rule:nonzero;fill:rgb(87.057495%,56.077576%,1.959229%);fill-opacity:1;stroke-width:0.79701;stroke-linecap:butt;stroke-linejoin:miter;stroke:rgb(0%,0%,0%);stroke-opacity:1;stroke-miterlimit:10;" d="M 24.833344 134.6485 C 24.833344 136.621156 23.231781 138.218813 21.259125 138.218813 C 19.286469 138.218813 17.688812 136.621156 17.688812 134.6485 C 17.688812 132.675844 19.286469 131.074281 21.259125 131.074281 C 23.231781 131.074281 24.833344 132.675844 24.833344 134.6485 Z M 24.833344 134.6485 " transform="matrix(1,0,0,-1,6.819,166.711)"/>
<g style="fill:rgb(0%,0%,0%);fill-opacity:1;">
  <use xlink:href="#glyph4-1" x="20.607" y="47.404"/>
</g>
<g style="fill:rgb(0%,0%,0%);fill-opacity:1;">
  <use xlink:href="#glyph4-2" x="26.871525" y="47.404"/>
</g>
<path style="fill-rule:nonzero;fill:rgb(0.782776%,61.959839%,45.097351%);fill-opacity:1;stroke-width:0.79701;stroke-linecap:butt;stroke-linejoin:miter;stroke:rgb(0%,0%,0%);stroke-opacity:1;stroke-miterlimit:10;" d="M 24.833344 70.86725 C 24.833344 72.839906 23.231781 74.441469 21.259125 74.441469 C 19.286469 74.441469 17.688812 72.839906 17.688812 70.86725 C 17.688812 68.894594 19.286469 67.293031 21.259125 67.293031 C 23.231781 67.293031 24.833344 68.894594 24.833344 70.86725 Z M 24.833344 70.86725 " transform="matrix(1,0,0,-1,6.819,166.711)"/>
<g style="fill:rgb(0%,0%,0%);fill-opacity:1;">
  <use xlink:href="#glyph4-1" x="20.296" y="111.184"/>
</g>
<g style="fill:rgb(0%,0%,0%);fill-opacity:1;">
  <use xlink:href="#glyph4-3" x="26.560525" y="111.184"/>
</g>
<path style="fill-rule:nonzero;fill:rgb(50%,50%,50%);fill-opacity:1;stroke-width:0.79701;stroke-linecap:butt;stroke-linejoin:miter;stroke:rgb(0%,0%,0%);stroke-opacity:1;stroke-miterlimit:10;" d="M 166.567719 134.6485 C 166.567719 136.621156 164.966156 138.218813 162.9935 138.218813 C 161.020844 138.218813 159.423187 136.621156 159.423187 134.6485 C 159.423187 132.675844 161.020844 131.074281 162.9935 131.074281 C 164.966156 131.074281 166.567719 132.675844 166.567719 134.6485 Z M 166.567719 134.6485 " transform="matrix(1,0,0,-1,6.819,166.711)"/>
<g style="fill:rgb(0%,0%,0%);fill-opacity:1;">
  <use xlink:href="#glyph4-4" x="163.698" y="46.639"/>
  <use xlink:href="#glyph4-2" x="167.248694" y="46.639"/>
</g>
<path style="fill-rule:nonzero;fill:rgb(50%,50%,50%);fill-opacity:1;stroke-width:0.79701;stroke-linecap:butt;stroke-linejoin:miter;stroke:rgb(0%,0%,0%);stroke-opacity:1;stroke-miterlimit:10;" d="M 166.567719 70.86725 C 166.567719 72.839906 164.966156 74.441469 162.9935 74.441469 C 161.020844 74.441469 159.423187 72.839906 159.423187 70.86725 C 159.423187 68.894594 161.020844 67.293031 162.9935 67.293031 C 164.966156 67.293031 166.567719 68.894594 166.567719 70.86725 Z M 166.567719 70.86725 " transform="matrix(1,0,0,-1,6.819,166.711)"/>
<g style="fill:rgb(0%,0%,0%);fill-opacity:1;">
  <use xlink:href="#glyph4-4" x="163.387" y="110.192"/>
  <use xlink:href="#glyph4-3" x="166.937694" y="110.192"/>
</g>
</g>
</svg>
