<?xml version="1.0" encoding="UTF-8"?>
<svg xmlns="http://www.w3.org/2000/svg" xmlns:xlink="http://www.w3.org/1999/xlink" width="393.04pt" height="293.83pt" viewBox="0 0 393.04 293.83" version="1.1">
<defs>
<clipPath id="clip1">
  <path d="M 326 0 L 393.039062 0 L 393.039062 152 L 326 152 Z M 326 0 "/>
</clipPath>
<clipPath id="clip2">
  <path d="M 0 139 L 70 139 L 70 293.828125 L 0 293.828125 Z M 0 139 "/>
</clipPath>
<clipPath id="clip3">
  <path d="M 43 139 L 127 139 L 127 293.828125 L 43 293.828125 Z M 43 139 "/>
</clipPath>
<clipPath id="clip4">
  <path d="M 128 139 L 212 139 L 212 293.828125 L 128 293.828125 Z M 128 139 "/>
</clipPath>
<clipPath id="clip5">
  <path d="M 185 139 L 268 139 L 268 293.828125 L 185 293.828125 Z M 185 139 "/>
</clipPath>
<clipPath id="clip6">
  <path d="M 270 139 L 353 139 L 353 293.828125 L 270 293.828125 Z M 270 139 "/>
</clipPath>
<clipPath id="clip7">
  <path d="M 326 139 L 393.039062 139 L 393.039062 293.828125 L 326 293.828125 Z M 326 139 "/>
</clipPath>
<clipPath id="clip8">
  <path d="M 292 0 L 393.039062 0 L 393.039062 93 L 292 93 Z M 292 0 "/>
</clipPath>
<clipPath id="clip9">
  <path d="M 288 3 L 393.039062 3 L 393.039062 97 L 288 97 Z M 288 3 "/>
</clipPath>
<clipPath id="clip10">
  <path d="M 292 80 L 393.039062 80 L 393.039062 145 L 292 145 Z M 292 80 "/>
</clipPath>
<clipPath id="clip11">
  <path d="M 146 202 L 254 202 L 254 293.828125 L 146 293.828125 Z M 146 202 "/>
</clipPath>
<clipPath id="clip12">
  <path d="M 290 153 L 393.039062 153 L 393.039062 289 L 290 289 Z M 290 153 "/>
</clipPath>
<clipPath id="clip13">
  <path d="M 292 193 L 393.039062 193 L 393.039062 259 L 292 259 Z M 292 193 "/>
</clipPath>
<clipPath id="clip14">
  <path d="M 290 158 L 393.039062 158 L 393.039062 293 L 290 293 Z M 290 158 "/>
</clipPath>
</defs>
<g id="surface1">
<path style="fill-rule:nonzero;fill:rgb(100%,100%,100%);fill-opacity:1;stroke-width:1.41731;stroke-linecap:butt;stroke-linejoin:miter;stroke:rgb(50%,50%,50%);stroke-opacity:1;stroke-miterlimit:10;" d="M 0.0013125 176.827406 L 0.0013125 262.546156 C 0.0013125 274.100844 9.3685 283.468031 20.923187 283.468031 L 21.598969 283.468031 C 33.153656 283.468031 42.520844 274.100844 42.520844 262.546156 L 42.520844 176.827406 C 42.520844 165.272719 33.153656 155.905531 21.598969 155.905531 L 20.923187 155.905531 C 9.3685 155.905531 0.0013125 165.272719 0.0013125 176.827406 Z M 0.0013125 176.827406 " transform="matrix(1,0,0,-1,6.819,287.011)"/>
<path style="fill-rule:nonzero;fill:rgb(100%,100%,100%);fill-opacity:1;stroke-width:1.41731;stroke-linecap:butt;stroke-linejoin:miter;stroke:rgb(50%,50%,50%);stroke-opacity:1;stroke-miterlimit:10;" d="M 56.692719 176.827406 L 56.692719 262.546156 C 56.692719 274.100844 66.059906 283.468031 77.614594 283.468031 L 78.290375 283.468031 C 89.845062 283.468031 99.21225 274.100844 99.21225 262.546156 L 99.21225 176.827406 C 99.21225 165.272719 89.845062 155.905531 78.290375 155.905531 L 77.614594 155.905531 C 66.059906 155.905531 56.692719 165.272719 56.692719 176.827406 Z M 56.692719 176.827406 " transform="matrix(1,0,0,-1,6.819,287.011)"/>
<path style="fill-rule:nonzero;fill:rgb(100%,100%,100%);fill-opacity:1;stroke-width:1.41731;stroke-linecap:butt;stroke-linejoin:miter;stroke:rgb(50%,50%,50%);stroke-opacity:1;stroke-miterlimit:10;" d="M 141.735687 176.827406 L 141.735687 262.546156 C 141.735687 274.100844 151.098969 283.468031 162.657562 283.468031 L 163.333344 283.468031 C 174.888031 283.468031 184.255219 274.100844 184.255219 262.546156 L 184.255219 176.827406 C 184.255219 165.272719 174.888031 155.905531 163.333344 155.905531 L 162.657562 155.905531 C 151.098969 155.905531 141.735687 165.272719 141.735687 176.827406 Z M 141.735687 176.827406 " transform="matrix(1,0,0,-1,6.819,287.011)"/>
<path style="fill-rule:nonzero;fill:rgb(100%,100%,100%);fill-opacity:1;stroke-width:1.41731;stroke-linecap:butt;stroke-linejoin:miter;stroke:rgb(50%,50%,50%);stroke-opacity:1;stroke-miterlimit:10;" d="M 198.427094 176.827406 L 198.427094 262.546156 C 198.427094 274.100844 207.794281 283.468031 219.348969 283.468031 L 220.02475 283.468031 C 231.579437 283.468031 240.946625 274.100844 240.946625 262.546156 L 240.946625 176.827406 C 240.946625 165.272719 231.579437 155.905531 220.02475 155.905531 L 219.348969 155.905531 C 207.794281 155.905531 198.427094 165.272719 198.427094 176.827406 Z M 198.427094 176.827406 " transform="matrix(1,0,0,-1,6.819,287.011)"/>
<path style="fill-rule:nonzero;fill:rgb(100%,100%,100%);fill-opacity:1;stroke-width:1.41731;stroke-linecap:butt;stroke-linejoin:miter;stroke:rgb(50%,50%,50%);stroke-opacity:1;stroke-miterlimit:10;" d="M 283.466156 176.827406 L 283.466156 262.546156 C 283.466156 274.100844 292.833344 283.468031 304.388031 283.468031 L 305.067719 283.468031 C 316.622406 283.468031 325.989594 274.100844 325.989594 262.546156 L 325.989594 176.827406 C 325.989594 165.272719 316.622406 155.905531 305.067719 155.905531 L 304.388031 155.905531 C 292.833344 155.905531 283.466156 165.272719 283.466156 176.827406 Z M 283.466156 176.827406 " transform="matrix(1,0,0,-1,6.819,287.011)"/>
<path style=" stroke:none;fill-rule:nonzero;fill:rgb(100%,100%,100%);fill-opacity:1;" d="M 346.980469 110.183594 L 346.980469 24.464844 C 346.980469 12.910156 356.347656 3.542969 367.902344 3.542969 L 368.578125 3.542969 C 380.132812 3.542969 389.5 12.910156 389.5 24.464844 L 389.5 110.183594 C 389.5 121.738281 380.132812 131.105469 368.578125 131.105469 L 367.902344 131.105469 C 356.347656 131.105469 346.980469 121.738281 346.980469 110.183594 Z M 346.980469 110.183594 "/>
<g clip-path="url(#clip1)" clip-rule="nonzero">
<path style="fill:none;stroke-width:1.41731;stroke-linecap:butt;stroke-linejoin:miter;stroke:rgb(50%,50%,50%);stroke-opacity:1;stroke-miterlimit:10;" d="M 340.161469 176.827406 L 340.161469 262.546156 C 340.161469 274.100844 349.528656 283.468031 361.083344 283.468031 L 361.759125 283.468031 C 373.313812 283.468031 382.681 274.100844 382.681 262.546156 L 382.681 176.827406 C 382.681 165.272719 373.313812 155.905531 361.759125 155.905531 L 361.083344 155.905531 C 349.528656 155.905531 340.161469 165.272719 340.161469 176.827406 Z M 340.161469 176.827406 " transform="matrix(1,0,0,-1,6.819,287.011)"/>
</g>
<path style=" stroke:none;fill-rule:nonzero;fill:rgb(100%,100%,100%);fill-opacity:1;" d="M 6.820312 266.089844 L 6.820312 180.371094 C 6.820312 168.816406 16.1875 159.449219 27.742188 159.449219 L 28.417969 159.449219 C 39.972656 159.449219 49.339844 168.816406 49.339844 180.371094 L 49.339844 266.089844 C 49.339844 277.644531 39.972656 287.011719 28.417969 287.011719 L 27.742188 287.011719 C 16.1875 287.011719 6.820312 277.644531 6.820312 266.089844 Z M 6.820312 266.089844 "/>
<g clip-path="url(#clip2)" clip-rule="nonzero">
<path style="fill:none;stroke-width:1.41731;stroke-linecap:butt;stroke-linejoin:miter;stroke:rgb(50%,50%,50%);stroke-opacity:1;stroke-miterlimit:10;" d="M 0.0013125 20.921156 L 0.0013125 106.639906 C 0.0013125 118.194594 9.3685 127.561781 20.923187 127.561781 L 21.598969 127.561781 C 33.153656 127.561781 42.520844 118.194594 42.520844 106.639906 L 42.520844 20.921156 C 42.520844 9.366469 33.153656 -0.00071875 21.598969 -0.00071875 L 20.923187 -0.00071875 C 9.3685 -0.00071875 0.0013125 9.366469 0.0013125 20.921156 Z M 0.0013125 20.921156 " transform="matrix(1,0,0,-1,6.819,287.011)"/>
</g>
<path style=" stroke:none;fill-rule:nonzero;fill:rgb(100%,100%,100%);fill-opacity:1;" d="M 63.511719 266.089844 L 63.511719 180.371094 C 63.511719 168.816406 72.878906 159.449219 84.433594 159.449219 L 85.109375 159.449219 C 96.664062 159.449219 106.03125 168.816406 106.03125 180.371094 L 106.03125 266.089844 C 106.03125 277.644531 96.664062 287.011719 85.109375 287.011719 L 84.433594 287.011719 C 72.878906 287.011719 63.511719 277.644531 63.511719 266.089844 Z M 63.511719 266.089844 "/>
<g clip-path="url(#clip3)" clip-rule="nonzero">
<path style="fill:none;stroke-width:1.41731;stroke-linecap:butt;stroke-linejoin:miter;stroke:rgb(50%,50%,50%);stroke-opacity:1;stroke-miterlimit:10;" d="M 56.692719 20.921156 L 56.692719 106.639906 C 56.692719 118.194594 66.059906 127.561781 77.614594 127.561781 L 78.290375 127.561781 C 89.845062 127.561781 99.21225 118.194594 99.21225 106.639906 L 99.21225 20.921156 C 99.21225 9.366469 89.845062 -0.00071875 78.290375 -0.00071875 L 77.614594 -0.00071875 C 66.059906 -0.00071875 56.692719 9.366469 56.692719 20.921156 Z M 56.692719 20.921156 " transform="matrix(1,0,0,-1,6.819,287.011)"/>
</g>
<path style=" stroke:none;fill-rule:nonzero;fill:rgb(100%,100%,100%);fill-opacity:1;" d="M 148.554688 266.089844 L 148.554688 180.371094 C 148.554688 168.816406 157.917969 159.449219 169.476562 159.449219 L 170.152344 159.449219 C 181.707031 159.449219 191.074219 168.816406 191.074219 180.371094 L 191.074219 266.089844 C 191.074219 277.644531 181.707031 287.011719 170.152344 287.011719 L 169.476562 287.011719 C 157.917969 287.011719 148.554688 277.644531 148.554688 266.089844 Z M 148.554688 266.089844 "/>
<g clip-path="url(#clip4)" clip-rule="nonzero">
<path style="fill:none;stroke-width:1.41731;stroke-linecap:butt;stroke-linejoin:miter;stroke:rgb(50%,50%,50%);stroke-opacity:1;stroke-miterlimit:10;" d="M 141.735687 20.921156 L 141.735687 106.639906 C 141.735687 118.194594 151.098969 127.561781 162.657562 127.561781 L 163.333344 127.561781 C 174.888031 127.561781 184.255219 118.194594 184.255219 106.639906 L 184.255219 20.921156 C 184.255219 9.366469 174.888031 -0.00071875 163.333344 -0.00071875 L 162.657562 -0.00071875 C 151.098969 -0.00071875 141.735687 9.366469 141.735687 20.921156 Z M 141.735687 20.921156 " transform="matrix(1,0,0,-1,6.819,287.011)"/>
</g>
<path style=" stroke:none;fill-rule:nonzero;fill:rgb(100%,100%,100%);fill-opacity:1;" d="M 205.246094 266.089844 L 205.246094 180.371094 C 205.246094 168.816406 214.613281 159.449219 226.167969 159.449219 L 226.84375 159.449219 C 238.398438 159.449219 247.765625 168.816406 247.765625 180.371094 L 247.765625 266.089844 C 247.765625 277.644531 238.398438 287.011719 226.84375 287.011719 L 226.167969 287.011719 C 214.613281 287.011719 205.246094 277.644531 205.246094 266.089844 Z M 205.246094 266.089844 "/>
<g clip-path="url(#clip5)" clip-rule="nonzero">
<path style="fill:none;stroke-width:1.41731;stroke-linecap:butt;stroke-linejoin:miter;stroke:rgb(50%,50%,50%);stroke-opacity:1;stroke-miterlimit:10;" d="M 198.427094 20.921156 L 198.427094 106.639906 C 198.427094 118.194594 207.794281 127.561781 219.348969 127.561781 L 220.02475 127.561781 C 231.579437 127.561781 240.946625 118.194594 240.946625 106.639906 L 240.946625 20.921156 C 240.946625 9.366469 231.579437 -0.00071875 220.02475 -0.00071875 L 219.348969 -0.00071875 C 207.794281 -0.00071875 198.427094 9.366469 198.427094 20.921156 Z M 198.427094 20.921156 " transform="matrix(1,0,0,-1,6.819,287.011)"/>
</g>
<path style=" stroke:none;fill-rule:nonzero;fill:rgb(100%,100%,100%);fill-opacity:1;" d="M 290.285156 266.089844 L 290.285156 180.371094 C 290.285156 168.816406 299.652344 159.449219 311.207031 159.449219 L 311.886719 159.449219 C 323.441406 159.449219 332.808594 168.816406 332.808594 180.371094 L 332.808594 266.089844 C 332.808594 277.644531 323.441406 287.011719 311.886719 287.011719 L 311.207031 287.011719 C 299.652344 287.011719 290.285156 277.644531 290.285156 266.089844 Z M 290.285156 266.089844 "/>
<g clip-path="url(#clip6)" clip-rule="nonzero">
<path style="fill:none;stroke-width:1.41731;stroke-linecap:butt;stroke-linejoin:miter;stroke:rgb(50%,50%,50%);stroke-opacity:1;stroke-miterlimit:10;" d="M 283.466156 20.921156 L 283.466156 106.639906 C 283.466156 118.194594 292.833344 127.561781 304.388031 127.561781 L 305.067719 127.561781 C 316.622406 127.561781 325.989594 118.194594 325.989594 106.639906 L 325.989594 20.921156 C 325.989594 9.366469 316.622406 -0.00071875 305.067719 -0.00071875 L 304.388031 -0.00071875 C 292.833344 -0.00071875 283.466156 9.366469 283.466156 20.921156 Z M 283.466156 20.921156 " transform="matrix(1,0,0,-1,6.819,287.011)"/>
</g>
<path style=" stroke:none;fill-rule:nonzero;fill:rgb(100%,100%,100%);fill-opacity:1;" d="M 346.980469 266.089844 L 346.980469 180.371094 C 346.980469 168.816406 356.347656 159.449219 367.902344 159.449219 L 368.578125 159.449219 C 380.132812 159.449219 389.5 168.816406 389.5 180.371094 L 389.5 266.089844 C 389.5 277.644531 380.132812 287.011719 368.578125 287.011719 L 367.902344 287.011719 C 356.347656 287.011719 346.980469 277.644531 346.980469 266.089844 Z M 346.980469 266.089844 "/>
<g clip-path="url(#clip7)" clip-rule="nonzero">
<path style="fill:none;stroke-width:1.41731;stroke-linecap:butt;stroke-linejoin:miter;stroke:rgb(50%,50%,50%);stroke-opacity:1;stroke-miterlimit:10;" d="M 340.161469 20.921156 L 340.161469 106.639906 C 340.161469 118.194594 349.528656 127.561781 361.083344 127.561781 L 361.759125 127.561781 C 373.313812 127.561781 382.681 118.194594 382.681 106.639906 L 382.681 20.921156 C 382.681 9.366469 373.313812 -0.00071875 361.759125 -0.00071875 L 361.083344 -0.00071875 C 349.528656 -0.00071875 340.161469 9.366469 340.161469 20.921156 Z M 340.161469 20.921156 " transform="matrix(1,0,0,-1,6.819,287.011)"/>
</g>
<path style="fill:none;stroke-width:2.12599;stroke-linecap:butt;stroke-linejoin:miter;stroke:rgb(87.098694%,56.098938%,1.998901%);stroke-opacity:1;stroke-miterlimit:10;" d="M 75.079437 261.436781 C 58.223969 256.921156 47.052094 256.327406 32.473969 259.401625 " transform="matrix(1,0,0,-1,6.819,287.011)"/>
<path style=" stroke:none;fill-rule:nonzero;fill:rgb(87.098694%,56.098938%,1.998901%);fill-opacity:1;" d="M 34.8125 26.578125 L 41.195312 31.726562 L 39.292969 27.558594 L 42.761719 24.5625 "/>
<path style="fill:none;stroke-width:2.12599;stroke-linecap:butt;stroke-linejoin:miter;stroke:rgb(87.098694%,56.098938%,1.998901%);stroke-opacity:1;stroke-miterlimit:10;" d="M 75.079437 218.91725 C 58.223969 214.401625 47.052094 213.807875 32.473969 216.882094 " transform="matrix(1,0,0,-1,6.819,287.011)"/>
<path style=" stroke:none;fill-rule:nonzero;fill:rgb(87.098694%,56.098938%,1.998901%);fill-opacity:1;" d="M 34.8125 69.097656 L 41.195312 74.246094 L 39.292969 70.078125 L 42.761719 67.082031 "/>
<path style="fill:none;stroke-width:2.12599;stroke-linecap:butt;stroke-linejoin:miter;stroke:rgb(87.098694%,56.098938%,1.998901%);stroke-opacity:1;stroke-miterlimit:10;" d="M 75.079437 176.397719 C 58.223969 171.882094 47.052094 171.288344 32.473969 174.362562 " transform="matrix(1,0,0,-1,6.819,287.011)"/>
<path style=" stroke:none;fill-rule:nonzero;fill:rgb(87.098694%,56.098938%,1.998901%);fill-opacity:1;" d="M 34.8125 111.621094 L 41.195312 116.769531 L 39.292969 112.597656 L 42.761719 109.601562 "/>
<path style="fill:none;stroke-width:2.12599;stroke-linecap:butt;stroke-linejoin:miter;stroke:rgb(87.098694%,56.098938%,1.998901%);stroke-opacity:1;stroke-miterlimit:10;" d="M 216.813812 261.436781 C 199.958344 256.921156 188.786469 256.327406 174.208344 259.401625 " transform="matrix(1,0,0,-1,6.819,287.011)"/>
<path style=" stroke:none;fill-rule:nonzero;fill:rgb(87.098694%,56.098938%,1.998901%);fill-opacity:1;" d="M 176.546875 26.578125 L 182.929688 31.726562 L 181.023438 27.558594 L 184.496094 24.5625 "/>
<path style="fill:none;stroke-width:2.12599;stroke-linecap:butt;stroke-linejoin:miter;stroke:rgb(87.098694%,56.098938%,1.998901%);stroke-opacity:1;stroke-miterlimit:10;" d="M 217.852875 217.346937 C 203.598969 199.186781 192.27475 189.936781 173.64975 181.596937 " transform="matrix(1,0,0,-1,6.819,287.011)"/>
<path style=" stroke:none;fill-rule:nonzero;fill:rgb(87.098694%,56.098938%,1.998901%);fill-opacity:1;" d="M 176.269531 107.230469 L 184.460938 107.621094 L 180.460938 105.378906 L 181.496094 100.914062 "/>
<path style="fill:none;stroke-width:2.12599;stroke-linecap:butt;stroke-linejoin:miter;stroke:rgb(87.098694%,56.098938%,1.998901%);stroke-opacity:1;stroke-miterlimit:10;" d="M 216.927094 178.276625 C 195.501312 186.874281 183.454437 195.151625 170.227875 210.6985 " transform="matrix(1,0,0,-1,6.819,287.011)"/>
<path style=" stroke:none;fill-rule:nonzero;fill:rgb(87.098694%,56.098938%,1.998901%);fill-opacity:1;" d="M 174.128906 72.789062 L 176.046875 80.761719 L 177.082031 76.296875 L 181.65625 76.039062 "/>
<g clip-path="url(#clip8)" clip-rule="nonzero">
<path style="fill:none;stroke-width:2.12599;stroke-linecap:butt;stroke-linejoin:miter;stroke:rgb(87.098694%,56.098938%,1.998901%);stroke-opacity:1;stroke-miterlimit:10;" d="M 359.583344 259.866469 C 345.329437 241.710219 334.009125 232.460219 315.384125 224.116469 " transform="matrix(1,0,0,-1,6.819,287.011)"/>
</g>
<path style=" stroke:none;fill-rule:nonzero;fill:rgb(87.098694%,56.098938%,1.998901%);fill-opacity:1;" d="M 318.003906 64.710938 L 326.191406 65.101562 L 322.195312 62.859375 L 323.230469 58.394531 "/>
<g clip-path="url(#clip9)" clip-rule="nonzero">
<path style="fill:none;stroke-width:2.12599;stroke-linecap:butt;stroke-linejoin:miter;stroke:rgb(87.098694%,56.098938%,1.998901%);stroke-opacity:1;stroke-miterlimit:10;" d="M 358.661469 220.796156 C 337.235687 229.393812 325.188812 237.671156 311.96225 253.218031 " transform="matrix(1,0,0,-1,6.819,287.011)"/>
</g>
<path style=" stroke:none;fill-rule:nonzero;fill:rgb(87.098694%,56.098938%,1.998901%);fill-opacity:1;" d="M 315.863281 30.269531 L 317.78125 38.242188 L 318.816406 33.777344 L 323.390625 33.519531 "/>
<g clip-path="url(#clip10)" clip-rule="nonzero">
<path style="fill:none;stroke-width:2.12599;stroke-linecap:butt;stroke-linejoin:miter;stroke:rgb(87.098694%,56.098938%,1.998901%);stroke-opacity:1;stroke-miterlimit:10;" d="M 358.548187 176.397719 C 341.692719 171.882094 330.520844 171.288344 315.942719 174.362562 " transform="matrix(1,0,0,-1,6.819,287.011)"/>
</g>
<path style=" stroke:none;fill-rule:nonzero;fill:rgb(87.098694%,56.098938%,1.998901%);fill-opacity:1;" d="M 318.28125 111.621094 L 324.664062 116.769531 L 322.757812 112.597656 L 326.230469 109.601562 "/>
<path style="fill:none;stroke-width:2.12599;stroke-linecap:butt;stroke-linejoin:miter;stroke:rgb(87.098694%,56.098938%,1.998901%);stroke-opacity:1;stroke-miterlimit:10;" d="M 76.1185 103.960219 C 61.864594 85.800062 50.540375 76.550062 31.915375 68.210219 " transform="matrix(1,0,0,-1,6.819,287.011)"/>
<path style=" stroke:none;fill-rule:nonzero;fill:rgb(87.098694%,56.098938%,1.998901%);fill-opacity:1;" d="M 34.535156 220.617188 L 42.726562 221.007812 L 38.726562 218.765625 L 39.761719 214.300781 "/>
<path style="fill:none;stroke-width:2.12599;stroke-linecap:butt;stroke-linejoin:miter;stroke:rgb(87.098694%,56.098938%,1.998901%);stroke-opacity:1;stroke-miterlimit:10;" d="M 76.1185 61.440687 C 61.864594 43.280531 50.540375 34.030531 31.915375 25.690687 " transform="matrix(1,0,0,-1,6.819,287.011)"/>
<path style=" stroke:none;fill-rule:nonzero;fill:rgb(87.098694%,56.098938%,1.998901%);fill-opacity:1;" d="M 34.535156 263.136719 L 42.726562 263.527344 L 38.726562 261.285156 L 39.761719 256.820312 "/>
<path style="fill:none;stroke-width:2.12599;stroke-linecap:butt;stroke-linejoin:miter;stroke:rgb(87.098694%,56.098938%,1.998901%);stroke-opacity:1;stroke-miterlimit:10;" d="M 218.735687 103.483656 C 207.388031 69.940687 195.563812 51.081312 171.614594 28.956312 " transform="matrix(1,0,0,-1,6.819,287.011)"/>
<path style=" stroke:none;fill-rule:nonzero;fill:rgb(87.098694%,56.098938%,1.998901%);fill-opacity:1;" d="M 175.027344 261.148438 L 182.910156 258.890625 L 178.40625 258.050781 L 177.953125 253.488281 "/>
<path style="fill:none;stroke-width:2.12599;stroke-linecap:butt;stroke-linejoin:miter;stroke:rgb(87.098694%,56.098938%,1.998901%);stroke-opacity:1;stroke-miterlimit:10;" d="M 216.927094 64.889906 C 195.501312 73.487562 183.454437 81.764906 170.227875 97.311781 " transform="matrix(1,0,0,-1,6.819,287.011)"/>
<path style=" stroke:none;fill-rule:nonzero;fill:rgb(87.098694%,56.098938%,1.998901%);fill-opacity:1;" d="M 174.128906 186.175781 L 176.046875 194.148438 L 177.082031 189.683594 L 181.65625 189.425781 "/>
<g clip-path="url(#clip11)" clip-rule="nonzero">
<path style="fill:none;stroke-width:2.12599;stroke-linecap:butt;stroke-linejoin:miter;stroke:rgb(87.098694%,56.098938%,1.998901%);stroke-opacity:1;stroke-miterlimit:10;" d="M 216.927094 22.366469 C 195.501312 30.968031 183.454437 39.245375 170.227875 54.79225 " transform="matrix(1,0,0,-1,6.819,287.011)"/>
</g>
<path style=" stroke:none;fill-rule:nonzero;fill:rgb(87.098694%,56.098938%,1.998901%);fill-opacity:1;" d="M 174.128906 228.695312 L 176.046875 236.667969 L 177.082031 232.203125 L 181.65625 231.945312 "/>
<g clip-path="url(#clip12)" clip-rule="nonzero">
<path style="fill:none;stroke-width:2.12599;stroke-linecap:butt;stroke-linejoin:miter;stroke:rgb(87.098694%,56.098938%,1.998901%);stroke-opacity:1;stroke-miterlimit:10;" d="M 360.470062 103.483656 C 349.122406 69.940687 337.298187 51.081312 313.348969 28.956312 " transform="matrix(1,0,0,-1,6.819,287.011)"/>
</g>
<path style=" stroke:none;fill-rule:nonzero;fill:rgb(87.098694%,56.098938%,1.998901%);fill-opacity:1;" d="M 316.761719 261.148438 L 324.644531 258.890625 L 320.140625 258.050781 L 319.6875 253.488281 "/>
<g clip-path="url(#clip13)" clip-rule="nonzero">
<path style="fill:none;stroke-width:2.12599;stroke-linecap:butt;stroke-linejoin:miter;stroke:rgb(87.098694%,56.098938%,1.998901%);stroke-opacity:1;stroke-miterlimit:10;" d="M 358.548187 63.011 C 341.692719 58.495375 330.520844 57.901625 315.942719 60.971937 " transform="matrix(1,0,0,-1,6.819,287.011)"/>
</g>
<path style=" stroke:none;fill-rule:nonzero;fill:rgb(87.098694%,56.098938%,1.998901%);fill-opacity:1;" d="M 318.28125 225.007812 L 324.664062 230.15625 L 322.757812 225.984375 L 326.230469 222.992188 "/>
<path style="fill:none;stroke-width:2.12599;stroke-linecap:butt;stroke-linejoin:miter;stroke:rgb(87.098694%,56.098938%,1.998901%);stroke-opacity:1;stroke-miterlimit:10;" d="M 77.001312 24.077406 C 65.653656 57.616469 53.833344 76.47975 29.880219 98.60475 " transform="matrix(1,0,0,-1,6.819,287.011)"/>
<path style=" stroke:none;fill-rule:nonzero;fill:rgb(87.098694%,56.098938%,1.998901%);fill-opacity:1;" d="M 33.296875 185.3125 L 36.21875 192.972656 L 36.671875 188.410156 L 41.175781 187.570312 "/>
<g clip-path="url(#clip14)" clip-rule="nonzero">
<path style="fill:none;stroke-width:2.12599;stroke-linecap:butt;stroke-linejoin:miter;stroke:rgb(87.098694%,56.098938%,1.998901%);stroke-opacity:1;stroke-miterlimit:10;" d="M 360.470062 24.077406 C 349.122406 57.616469 337.298187 76.47975 313.348969 98.60475 " transform="matrix(1,0,0,-1,6.819,287.011)"/>
</g>
<path style=" stroke:none;fill-rule:nonzero;fill:rgb(87.098694%,56.098938%,1.998901%);fill-opacity:1;" d="M 316.761719 185.3125 L 319.6875 192.972656 L 320.140625 188.410156 L 324.644531 187.570312 "/>
<path style="fill-rule:nonzero;fill:rgb(50%,50%,50%);fill-opacity:1;stroke-width:0.79701;stroke-linecap:butt;stroke-linejoin:miter;stroke:rgb(0%,0%,0%);stroke-opacity:1;stroke-miterlimit:10;" d="M 24.833344 262.206312 C 24.833344 264.182875 23.231781 265.780531 21.259125 265.780531 C 19.286469 265.780531 17.688812 264.182875 17.688812 262.206312 C 17.688812 260.233656 19.286469 258.636 21.259125 258.636 C 23.231781 258.636 24.833344 260.233656 24.833344 262.206312 Z M 24.833344 262.206312 " transform="matrix(1,0,0,-1,6.819,287.011)"/>
<path style="fill-rule:nonzero;fill:rgb(50%,50%,50%);fill-opacity:1;stroke-width:0.79701;stroke-linecap:butt;stroke-linejoin:miter;stroke:rgb(0%,0%,0%);stroke-opacity:1;stroke-miterlimit:10;" d="M 24.833344 219.686781 C 24.833344 221.659437 23.231781 223.261 21.259125 223.261 C 19.286469 223.261 17.688812 221.659437 17.688812 219.686781 C 17.688812 217.714125 19.286469 216.116469 21.259125 216.116469 C 23.231781 216.116469 24.833344 217.714125 24.833344 219.686781 Z M 24.833344 219.686781 " transform="matrix(1,0,0,-1,6.819,287.011)"/>
<path style="fill-rule:nonzero;fill:rgb(50%,50%,50%);fill-opacity:1;stroke-width:0.79701;stroke-linecap:butt;stroke-linejoin:miter;stroke:rgb(0%,0%,0%);stroke-opacity:1;stroke-miterlimit:10;" d="M 24.833344 177.16725 C 24.833344 179.139906 23.231781 180.741469 21.259125 180.741469 C 19.286469 180.741469 17.688812 179.139906 17.688812 177.16725 C 17.688812 175.194594 19.286469 173.593031 21.259125 173.593031 C 23.231781 173.593031 24.833344 175.194594 24.833344 177.16725 Z M 24.833344 177.16725 " transform="matrix(1,0,0,-1,6.819,287.011)"/>
<path style="fill-rule:nonzero;fill:rgb(50%,50%,50%);fill-opacity:1;stroke-width:0.79701;stroke-linecap:butt;stroke-linejoin:miter;stroke:rgb(0%,0%,0%);stroke-opacity:1;stroke-miterlimit:10;" d="M 81.52475 262.206312 C 81.52475 264.182875 79.927094 265.780531 77.954437 265.780531 C 75.981781 265.780531 74.380219 264.182875 74.380219 262.206312 C 74.380219 260.233656 75.981781 258.636 77.954437 258.636 C 79.927094 258.636 81.52475 260.233656 81.52475 262.206312 Z M 81.52475 262.206312 " transform="matrix(1,0,0,-1,6.819,287.011)"/>
<path style="fill-rule:nonzero;fill:rgb(50%,50%,50%);fill-opacity:1;stroke-width:0.79701;stroke-linecap:butt;stroke-linejoin:miter;stroke:rgb(0%,0%,0%);stroke-opacity:1;stroke-miterlimit:10;" d="M 81.52475 219.686781 C 81.52475 221.659437 79.927094 223.261 77.954437 223.261 C 75.981781 223.261 74.380219 221.659437 74.380219 219.686781 C 74.380219 217.714125 75.981781 216.116469 77.954437 216.116469 C 79.927094 216.116469 81.52475 217.714125 81.52475 219.686781 Z M 81.52475 219.686781 " transform="matrix(1,0,0,-1,6.819,287.011)"/>
<path style="fill-rule:nonzero;fill:rgb(50%,50%,50%);fill-opacity:1;stroke-width:0.79701;stroke-linecap:butt;stroke-linejoin:miter;stroke:rgb(0%,0%,0%);stroke-opacity:1;stroke-miterlimit:10;" d="M 81.52475 177.16725 C 81.52475 179.139906 79.927094 180.741469 77.954437 180.741469 C 75.981781 180.741469 74.380219 179.139906 74.380219 177.16725 C 74.380219 175.194594 75.981781 173.593031 77.954437 173.593031 C 79.927094 173.593031 81.52475 175.194594 81.52475 177.16725 Z M 81.52475 177.16725 " transform="matrix(1,0,0,-1,6.819,287.011)"/>
<path style="fill-rule:nonzero;fill:rgb(50%,50%,50%);fill-opacity:1;stroke-width:0.79701;stroke-linecap:butt;stroke-linejoin:miter;stroke:rgb(0%,0%,0%);stroke-opacity:1;stroke-miterlimit:10;" d="M 166.567719 262.206312 C 166.567719 264.182875 164.966156 265.780531 162.9935 265.780531 C 161.020844 265.780531 159.423187 264.182875 159.423187 262.206312 C 159.423187 260.233656 161.020844 258.636 162.9935 258.636 C 164.966156 258.636 166.567719 260.233656 166.567719 262.206312 Z M 166.567719 262.206312 " transform="matrix(1,0,0,-1,6.819,287.011)"/>
<path style="fill-rule:nonzero;fill:rgb(50%,50%,50%);fill-opacity:1;stroke-width:0.79701;stroke-linecap:butt;stroke-linejoin:miter;stroke:rgb(0%,0%,0%);stroke-opacity:1;stroke-miterlimit:10;" d="M 166.567719 219.686781 C 166.567719 221.659437 164.966156 223.261 162.9935 223.261 C 161.020844 223.261 159.423187 221.659437 159.423187 219.686781 C 159.423187 217.714125 161.020844 216.116469 162.9935 216.116469 C 164.966156 216.116469 166.567719 217.714125 166.567719 219.686781 Z M 166.567719 219.686781 " transform="matrix(1,0,0,-1,6.819,287.011)"/>
<path style="fill-rule:nonzero;fill:rgb(50%,50%,50%);fill-opacity:1;stroke-width:0.79701;stroke-linecap:butt;stroke-linejoin:miter;stroke:rgb(0%,0%,0%);stroke-opacity:1;stroke-miterlimit:10;" d="M 166.567719 177.16725 C 166.567719 179.139906 164.966156 180.741469 162.9935 180.741469 C 161.020844 180.741469 159.423187 179.139906 159.423187 177.16725 C 159.423187 175.194594 161.020844 173.593031 162.9935 173.593031 C 164.966156 173.593031 166.567719 175.194594 166.567719 177.16725 Z M 166.567719 177.16725 " transform="matrix(1,0,0,-1,6.819,287.011)"/>
<path style="fill-rule:nonzero;fill:rgb(50%,50%,50%);fill-opacity:1;stroke-width:0.79701;stroke-linecap:butt;stroke-linejoin:miter;stroke:rgb(0%,0%,0%);stroke-opacity:1;stroke-miterlimit:10;" d="M 223.259125 262.206312 C 223.259125 264.182875 221.661469 265.780531 219.688812 265.780531 C 217.716156 265.780531 216.114594 264.182875 216.114594 262.206312 C 216.114594 260.233656 217.716156 258.636 219.688812 258.636 C 221.661469 258.636 223.259125 260.233656 223.259125 262.206312 Z M 223.259125 262.206312 " transform="matrix(1,0,0,-1,6.819,287.011)"/>
<path style="fill-rule:nonzero;fill:rgb(50%,50%,50%);fill-opacity:1;stroke-width:0.79701;stroke-linecap:butt;stroke-linejoin:miter;stroke:rgb(0%,0%,0%);stroke-opacity:1;stroke-miterlimit:10;" d="M 223.259125 219.686781 C 223.259125 221.659437 221.661469 223.261 219.688812 223.261 C 217.716156 223.261 216.114594 221.659437 216.114594 219.686781 C 216.114594 217.714125 217.716156 216.116469 219.688812 216.116469 C 221.661469 216.116469 223.259125 217.714125 223.259125 219.686781 Z M 223.259125 219.686781 " transform="matrix(1,0,0,-1,6.819,287.011)"/>
<path style="fill-rule:nonzero;fill:rgb(50%,50%,50%);fill-opacity:1;stroke-width:0.79701;stroke-linecap:butt;stroke-linejoin:miter;stroke:rgb(0%,0%,0%);stroke-opacity:1;stroke-miterlimit:10;" d="M 223.259125 177.16725 C 223.259125 179.139906 221.661469 180.741469 219.688812 180.741469 C 217.716156 180.741469 216.114594 179.139906 216.114594 177.16725 C 216.114594 175.194594 217.716156 173.593031 219.688812 173.593031 C 221.661469 173.593031 223.259125 175.194594 223.259125 177.16725 Z M 223.259125 177.16725 " transform="matrix(1,0,0,-1,6.819,287.011)"/>
<path style="fill-rule:nonzero;fill:rgb(50%,50%,50%);fill-opacity:1;stroke-width:0.79701;stroke-linecap:butt;stroke-linejoin:miter;stroke:rgb(0%,0%,0%);stroke-opacity:1;stroke-miterlimit:10;" d="M 308.302094 262.206312 C 308.302094 264.182875 306.700531 265.780531 304.727875 265.780531 C 302.755219 265.780531 301.157562 264.182875 301.157562 262.206312 C 301.157562 260.233656 302.755219 258.636 304.727875 258.636 C 306.700531 258.636 308.302094 260.233656 308.302094 262.206312 Z M 308.302094 262.206312 " transform="matrix(1,0,0,-1,6.819,287.011)"/>
<path style="fill-rule:nonzero;fill:rgb(50%,50%,50%);fill-opacity:1;stroke-width:0.79701;stroke-linecap:butt;stroke-linejoin:miter;stroke:rgb(0%,0%,0%);stroke-opacity:1;stroke-miterlimit:10;" d="M 308.302094 219.686781 C 308.302094 221.659437 306.700531 223.261 304.727875 223.261 C 302.755219 223.261 301.157562 221.659437 301.157562 219.686781 C 301.157562 217.714125 302.755219 216.116469 304.727875 216.116469 C 306.700531 216.116469 308.302094 217.714125 308.302094 219.686781 Z M 308.302094 219.686781 " transform="matrix(1,0,0,-1,6.819,287.011)"/>
<path style="fill-rule:nonzero;fill:rgb(50%,50%,50%);fill-opacity:1;stroke-width:0.79701;stroke-linecap:butt;stroke-linejoin:miter;stroke:rgb(0%,0%,0%);stroke-opacity:1;stroke-miterlimit:10;" d="M 308.302094 177.16725 C 308.302094 179.139906 306.700531 180.741469 304.727875 180.741469 C 302.755219 180.741469 301.157562 179.139906 301.157562 177.16725 C 301.157562 175.194594 302.755219 173.593031 304.727875 173.593031 C 306.700531 173.593031 308.302094 175.194594 308.302094 177.16725 Z M 308.302094 177.16725 " transform="matrix(1,0,0,-1,6.819,287.011)"/>
<path style="fill-rule:nonzero;fill:rgb(50%,50%,50%);fill-opacity:1;stroke-width:0.79701;stroke-linecap:butt;stroke-linejoin:miter;stroke:rgb(0%,0%,0%);stroke-opacity:1;stroke-miterlimit:10;" d="M 364.9935 262.206312 C 364.9935 264.182875 363.395844 265.780531 361.423187 265.780531 C 359.450531 265.780531 357.848969 264.182875 357.848969 262.206312 C 357.848969 260.233656 359.450531 258.636 361.423187 258.636 C 363.395844 258.636 364.9935 260.233656 364.9935 262.206312 Z M 364.9935 262.206312 " transform="matrix(1,0,0,-1,6.819,287.011)"/>
<path style="fill-rule:nonzero;fill:rgb(50%,50%,50%);fill-opacity:1;stroke-width:0.79701;stroke-linecap:butt;stroke-linejoin:miter;stroke:rgb(0%,0%,0%);stroke-opacity:1;stroke-miterlimit:10;" d="M 364.9935 219.686781 C 364.9935 221.659437 363.395844 223.261 361.423187 223.261 C 359.450531 223.261 357.848969 221.659437 357.848969 219.686781 C 357.848969 217.714125 359.450531 216.116469 361.423187 216.116469 C 363.395844 216.116469 364.9935 217.714125 364.9935 219.686781 Z M 364.9935 219.686781 " transform="matrix(1,0,0,-1,6.819,287.011)"/>
<path style="fill-rule:nonzero;fill:rgb(50%,50%,50%);fill-opacity:1;stroke-width:0.79701;stroke-linecap:butt;stroke-linejoin:miter;stroke:rgb(0%,0%,0%);stroke-opacity:1;stroke-miterlimit:10;" d="M 364.9935 177.16725 C 364.9935 179.139906 363.395844 180.741469 361.423187 180.741469 C 359.450531 180.741469 357.848969 179.139906 357.848969 177.16725 C 357.848969 175.194594 359.450531 173.593031 361.423187 173.593031 C 363.395844 173.593031 364.9935 175.194594 364.9935 177.16725 Z M 364.9935 177.16725 " transform="matrix(1,0,0,-1,6.819,287.011)"/>
<path style="fill-rule:nonzero;fill:rgb(50%,50%,50%);fill-opacity:1;stroke-width:0.79701;stroke-linecap:butt;stroke-linejoin:miter;stroke:rgb(0%,0%,0%);stroke-opacity:1;stroke-miterlimit:10;" d="M 24.833344 106.300062 C 24.833344 108.272719 23.231781 109.874281 21.259125 109.874281 C 19.286469 109.874281 17.688812 108.272719 17.688812 106.300062 C 17.688812 104.327406 19.286469 102.72975 21.259125 102.72975 C 23.231781 102.72975 24.833344 104.327406 24.833344 106.300062 Z M 24.833344 106.300062 " transform="matrix(1,0,0,-1,6.819,287.011)"/>
<path style="fill-rule:nonzero;fill:rgb(50%,50%,50%);fill-opacity:1;stroke-width:0.79701;stroke-linecap:butt;stroke-linejoin:miter;stroke:rgb(0%,0%,0%);stroke-opacity:1;stroke-miterlimit:10;" d="M 24.833344 63.780531 C 24.833344 65.753187 23.231781 67.35475 21.259125 67.35475 C 19.286469 67.35475 17.688812 65.753187 17.688812 63.780531 C 17.688812 61.807875 19.286469 60.206312 21.259125 60.206312 C 23.231781 60.206312 24.833344 61.807875 24.833344 63.780531 Z M 24.833344 63.780531 " transform="matrix(1,0,0,-1,6.819,287.011)"/>
<path style="fill-rule:nonzero;fill:rgb(50%,50%,50%);fill-opacity:1;stroke-width:0.79701;stroke-linecap:butt;stroke-linejoin:miter;stroke:rgb(0%,0%,0%);stroke-opacity:1;stroke-miterlimit:10;" d="M 24.833344 21.261 C 24.833344 23.233656 23.231781 24.831312 21.259125 24.831312 C 19.286469 24.831312 17.688812 23.233656 17.688812 21.261 C 17.688812 19.288344 19.286469 17.686781 21.259125 17.686781 C 23.231781 17.686781 24.833344 19.288344 24.833344 21.261 Z M 24.833344 21.261 " transform="matrix(1,0,0,-1,6.819,287.011)"/>
<path style="fill-rule:nonzero;fill:rgb(50%,50%,50%);fill-opacity:1;stroke-width:0.79701;stroke-linecap:butt;stroke-linejoin:miter;stroke:rgb(0%,0%,0%);stroke-opacity:1;stroke-miterlimit:10;" d="M 81.52475 106.300062 C 81.52475 108.272719 79.927094 109.874281 77.954437 109.874281 C 75.981781 109.874281 74.380219 108.272719 74.380219 106.300062 C 74.380219 104.327406 75.981781 102.72975 77.954437 102.72975 C 79.927094 102.72975 81.52475 104.327406 81.52475 106.300062 Z M 81.52475 106.300062 " transform="matrix(1,0,0,-1,6.819,287.011)"/>
<path style="fill-rule:nonzero;fill:rgb(50%,50%,50%);fill-opacity:1;stroke-width:0.79701;stroke-linecap:butt;stroke-linejoin:miter;stroke:rgb(0%,0%,0%);stroke-opacity:1;stroke-miterlimit:10;" d="M 81.52475 63.780531 C 81.52475 65.753187 79.927094 67.35475 77.954437 67.35475 C 75.981781 67.35475 74.380219 65.753187 74.380219 63.780531 C 74.380219 61.807875 75.981781 60.206312 77.954437 60.206312 C 79.927094 60.206312 81.52475 61.807875 81.52475 63.780531 Z M 81.52475 63.780531 " transform="matrix(1,0,0,-1,6.819,287.011)"/>
<path style="fill-rule:nonzero;fill:rgb(50%,50%,50%);fill-opacity:1;stroke-width:0.79701;stroke-linecap:butt;stroke-linejoin:miter;stroke:rgb(0%,0%,0%);stroke-opacity:1;stroke-miterlimit:10;" d="M 81.52475 21.261 C 81.52475 23.233656 79.927094 24.831312 77.954437 24.831312 C 75.981781 24.831312 74.380219 23.233656 74.380219 21.261 C 74.380219 19.288344 75.981781 17.686781 77.954437 17.686781 C 79.927094 17.686781 81.52475 19.288344 81.52475 21.261 Z M 81.52475 21.261 " transform="matrix(1,0,0,-1,6.819,287.011)"/>
<path style="fill-rule:nonzero;fill:rgb(50%,50%,50%);fill-opacity:1;stroke-width:0.79701;stroke-linecap:butt;stroke-linejoin:miter;stroke:rgb(0%,0%,0%);stroke-opacity:1;stroke-miterlimit:10;" d="M 166.567719 106.300062 C 166.567719 108.272719 164.966156 109.874281 162.9935 109.874281 C 161.020844 109.874281 159.423187 108.272719 159.423187 106.300062 C 159.423187 104.327406 161.020844 102.72975 162.9935 102.72975 C 164.966156 102.72975 166.567719 104.327406 166.567719 106.300062 Z M 166.567719 106.300062 " transform="matrix(1,0,0,-1,6.819,287.011)"/>
<path style="fill-rule:nonzero;fill:rgb(50%,50%,50%);fill-opacity:1;stroke-width:0.79701;stroke-linecap:butt;stroke-linejoin:miter;stroke:rgb(0%,0%,0%);stroke-opacity:1;stroke-miterlimit:10;" d="M 166.567719 63.780531 C 166.567719 65.753187 164.966156 67.35475 162.9935 67.35475 C 161.020844 67.35475 159.423187 65.753187 159.423187 63.780531 C 159.423187 61.807875 161.020844 60.206312 162.9935 60.206312 C 164.966156 60.206312 166.567719 61.807875 166.567719 63.780531 Z M 166.567719 63.780531 " transform="matrix(1,0,0,-1,6.819,287.011)"/>
<path style="fill-rule:nonzero;fill:rgb(50%,50%,50%);fill-opacity:1;stroke-width:0.79701;stroke-linecap:butt;stroke-linejoin:miter;stroke:rgb(0%,0%,0%);stroke-opacity:1;stroke-miterlimit:10;" d="M 166.567719 21.261 C 166.567719 23.233656 164.966156 24.831312 162.9935 24.831312 C 161.020844 24.831312 159.423187 23.233656 159.423187 21.261 C 159.423187 19.288344 161.020844 17.686781 162.9935 17.686781 C 164.966156 17.686781 166.567719 19.288344 166.567719 21.261 Z M 166.567719 21.261 " transform="matrix(1,0,0,-1,6.819,287.011)"/>
<path style="fill-rule:nonzero;fill:rgb(50%,50%,50%);fill-opacity:1;stroke-width:0.79701;stroke-linecap:butt;stroke-linejoin:miter;stroke:rgb(0%,0%,0%);stroke-opacity:1;stroke-miterlimit:10;" d="M 223.259125 106.300062 C 223.259125 108.272719 221.661469 109.874281 219.688812 109.874281 C 217.716156 109.874281 216.114594 108.272719 216.114594 106.300062 C 216.114594 104.327406 217.716156 102.72975 219.688812 102.72975 C 221.661469 102.72975 223.259125 104.327406 223.259125 106.300062 Z M 223.259125 106.300062 " transform="matrix(1,0,0,-1,6.819,287.011)"/>
<path style="fill-rule:nonzero;fill:rgb(50%,50%,50%);fill-opacity:1;stroke-width:0.79701;stroke-linecap:butt;stroke-linejoin:miter;stroke:rgb(0%,0%,0%);stroke-opacity:1;stroke-miterlimit:10;" d="M 223.259125 63.780531 C 223.259125 65.753187 221.661469 67.35475 219.688812 67.35475 C 217.716156 67.35475 216.114594 65.753187 216.114594 63.780531 C 216.114594 61.807875 217.716156 60.206312 219.688812 60.206312 C 221.661469 60.206312 223.259125 61.807875 223.259125 63.780531 Z M 223.259125 63.780531 " transform="matrix(1,0,0,-1,6.819,287.011)"/>
<path style="fill-rule:nonzero;fill:rgb(50%,50%,50%);fill-opacity:1;stroke-width:0.79701;stroke-linecap:butt;stroke-linejoin:miter;stroke:rgb(0%,0%,0%);stroke-opacity:1;stroke-miterlimit:10;" d="M 223.259125 21.261 C 223.259125 23.233656 221.661469 24.831312 219.688812 24.831312 C 217.716156 24.831312 216.114594 23.233656 216.114594 21.261 C 216.114594 19.288344 217.716156 17.686781 219.688812 17.686781 C 221.661469 17.686781 223.259125 19.288344 223.259125 21.261 Z M 223.259125 21.261 " transform="matrix(1,0,0,-1,6.819,287.011)"/>
<path style="fill-rule:nonzero;fill:rgb(50%,50%,50%);fill-opacity:1;stroke-width:0.79701;stroke-linecap:butt;stroke-linejoin:miter;stroke:rgb(0%,0%,0%);stroke-opacity:1;stroke-miterlimit:10;" d="M 308.302094 106.300062 C 308.302094 108.272719 306.700531 109.874281 304.727875 109.874281 C 302.755219 109.874281 301.157562 108.272719 301.157562 106.300062 C 301.157562 104.327406 302.755219 102.72975 304.727875 102.72975 C 306.700531 102.72975 308.302094 104.327406 308.302094 106.300062 Z M 308.302094 106.300062 " transform="matrix(1,0,0,-1,6.819,287.011)"/>
<path style="fill-rule:nonzero;fill:rgb(50%,50%,50%);fill-opacity:1;stroke-width:0.79701;stroke-linecap:butt;stroke-linejoin:miter;stroke:rgb(0%,0%,0%);stroke-opacity:1;stroke-miterlimit:10;" d="M 308.302094 63.780531 C 308.302094 65.753187 306.700531 67.35475 304.727875 67.35475 C 302.755219 67.35475 301.157562 65.753187 301.157562 63.780531 C 301.157562 61.807875 302.755219 60.206312 304.727875 60.206312 C 306.700531 60.206312 308.302094 61.807875 308.302094 63.780531 Z M 308.302094 63.780531 " transform="matrix(1,0,0,-1,6.819,287.011)"/>
<path style="fill-rule:nonzero;fill:rgb(50%,50%,50%);fill-opacity:1;stroke-width:0.79701;stroke-linecap:butt;stroke-linejoin:miter;stroke:rgb(0%,0%,0%);stroke-opacity:1;stroke-miterlimit:10;" d="M 308.302094 21.261 C 308.302094 23.233656 306.700531 24.831312 304.727875 24.831312 C 302.755219 24.831312 301.157562 23.233656 301.157562 21.261 C 301.157562 19.288344 302.755219 17.686781 304.727875 17.686781 C 306.700531 17.686781 308.302094 19.288344 308.302094 21.261 Z M 308.302094 21.261 " transform="matrix(1,0,0,-1,6.819,287.011)"/>
<path style="fill-rule:nonzero;fill:rgb(50%,50%,50%);fill-opacity:1;stroke-width:0.79701;stroke-linecap:butt;stroke-linejoin:miter;stroke:rgb(0%,0%,0%);stroke-opacity:1;stroke-miterlimit:10;" d="M 364.9935 106.300062 C 364.9935 108.272719 363.395844 109.874281 361.423187 109.874281 C 359.450531 109.874281 357.848969 108.272719 357.848969 106.300062 C 357.848969 104.327406 359.450531 102.72975 361.423187 102.72975 C 363.395844 102.72975 364.9935 104.327406 364.9935 106.300062 Z M 364.9935 106.300062 " transform="matrix(1,0,0,-1,6.819,287.011)"/>
<path style="fill-rule:nonzero;fill:rgb(50%,50%,50%);fill-opacity:1;stroke-width:0.79701;stroke-linecap:butt;stroke-linejoin:miter;stroke:rgb(0%,0%,0%);stroke-opacity:1;stroke-miterlimit:10;" d="M 364.9935 63.780531 C 364.9935 65.753187 363.395844 67.35475 361.423187 67.35475 C 359.450531 67.35475 357.848969 65.753187 357.848969 63.780531 C 357.848969 61.807875 359.450531 60.206312 361.423187 60.206312 C 363.395844 60.206312 364.9935 61.807875 364.9935 63.780531 Z M 364.9935 63.780531 " transform="matrix(1,0,0,-1,6.819,287.011)"/>
<path style="fill-rule:nonzero;fill:rgb(50%,50%,50%);fill-opacity:1;stroke-width:0.79701;stroke-linecap:butt;stroke-linejoin:miter;stroke:rgb(0%,0%,0%);stroke-opacity:1;stroke-miterlimit:10;" d="M 364.9935 21.261 C 364.9935 23.233656 363.395844 24.831312 361.423187 24.831312 C 359.450531 24.831312 357.848969 23.233656 357.848969 21.261 C 357.848969 19.288344 359.450531 17.686781 361.423187 17.686781 C 363.395844 17.686781 364.9935 19.288344 364.9935 21.261 Z M 364.9935 21.261 " transform="matrix(1,0,0,-1,6.819,287.011)"/>
</g>
</svg>
